<svg width="150" height="33" viewBox="0 0 150 33" fill="none" xmlns="http://www.w3.org/2000/svg">
<path fill-rule="evenodd" clip-rule="evenodd" d="M15.0047 32.3302L0.499023 24.2775L0.499028 8.17191L15.0048 0.119141L29.5105 8.17192L29.5105 24.2775L15.0047 32.3302ZM5.98107 20.8627L15.0002 9.13785L24.0193 20.8627L19.483 15.7636C17.0964 13.081 12.9039 13.081 10.5174 15.7636L5.98107 20.8627Z" fill="white"/>
<path d="M33.691 13.256C33.691 8.262 36.925 5.094 43.613 5.094C49.487 5.094 52.501 7.756 52.963 11.122H49.927C49.509 8.922 47.375 7.602 43.613 7.602C39.323 7.602 36.727 9.252 36.727 13.256C36.727 17.26 39.345 18.932 43.613 18.932C47.353 18.932 49.509 17.568 49.927 15.368H52.985C52.501 18.756 49.487 21.44 43.613 21.44C36.925 21.44 33.691 18.25 33.691 13.256ZM64.1084 7.734C69.5424 7.734 72.3804 9.406 72.4245 14.444V21H69.6745V19.416C67.1225 20.494 64.4164 21.418 61.0064 21.418C56.9804 21.418 54.9124 20.01 54.9124 17.018C54.9124 13.652 58.4984 12.508 62.7004 12.508C65.1424 12.508 67.5405 12.926 69.6745 13.542C69.6084 10.418 65.6704 10.11 63.8444 10.11C62.0624 10.11 59.9064 10.286 57.0024 11.232L55.9904 9.054C58.6744 8.218 61.1604 7.734 64.1084 7.734ZM61.8424 19.042C63.9764 19.042 67.2764 18.118 69.6745 17.216V15.83C67.8704 15.302 65.6925 14.818 62.8764 14.818C59.8844 14.818 57.8824 15.434 57.8824 17.018C57.8824 18.712 59.4664 19.042 61.8424 19.042ZM84.8696 7.734C86.3876 7.734 87.4436 7.954 88.3456 8.218V10.682C87.0916 10.352 86.1016 10.22 84.9356 10.22C83.1096 10.22 81.2836 10.66 78.5556 12.794V21H75.8056V8.174H78.5556V10.462C80.7116 8.262 82.6916 7.734 84.8696 7.734ZM113.005 7.734C116.811 7.734 119.077 9.626 119.143 13.982V21H116.393V14.224C116.393 11.606 115.271 10.198 112.037 10.198C109.397 10.198 106.691 11.804 106.691 14.994V21H103.941V14.224C103.941 11.606 102.819 10.198 99.6072 10.198C96.9452 10.198 94.2392 11.804 94.2392 14.994V21H91.4892V8.174H94.2392V10.77C95.7132 8.856 97.7592 7.734 100.553 7.734C103.479 7.734 105.481 8.834 106.295 11.32C107.791 9.054 109.947 7.734 113.005 7.734ZM131.142 19.042C134.442 19.042 135.938 18.118 136.62 16.754H139.59C138.798 19.702 135.718 21.44 131.12 21.44C125.84 21.44 122.056 19.262 122.056 14.598C122.056 9.934 125.972 7.734 130.9 7.734C135.872 7.734 139.788 9.56 139.788 15.28H125.048C125.334 17.942 127.468 19.042 131.142 19.042ZM130.9 10.088C127.886 10.088 125.862 10.968 125.224 13.036H136.642C136.07 10.99 134.112 10.088 130.9 10.088ZM142.944 21V3.4H145.694V21H142.944Z" fill="white"/>
</svg>
