<svg xmlns="http://www.w3.org/2000/svg" width="16" height="17" viewBox="0 0 16 17" fill="none">
  <path fill-rule="evenodd" clip-rule="evenodd" d="M16.0001 9.00003C16.0001 11.1352 15.1667 13.1471 13.657 14.6569C12.1472 16.1667 10.1352 17 8.00009 17C5.86497 17 3.85312 16.1667 2.34334 14.6569C0.833528 13.1471 0.00012207 11.1353 0.00012207 9.00003C0.00012207 6.1645 1.50906 3.53403 3.95184 2.09919C4.24809 1.92519 4.59093 1.92325 4.88909 2.09391C5.18728 2.26456 5.35928 2.56119 5.35928 2.90475C5.35928 3.2675 5.21747 3.56012 4.9004 3.74753C3.04653 4.84338 1.90184 6.84447 1.90184 9C1.90184 12.3624 4.63772 15.0983 8.00009 15.0983C11.3624 15.0983 14.0983 12.3624 14.0983 9C14.0983 6.84453 12.9539 4.84334 11.1 3.74759C10.8082 3.57512 10.6411 3.28231 10.6411 2.94334C10.6411 2.576 10.7875 2.27919 11.1112 2.09387C11.4094 1.92322 11.7523 1.92513 12.0485 2.09909C14.4913 3.53384 16.0001 6.16463 16.0001 9.00003ZM8.92378 7.74587V0.923531C8.92378 0.413562 8.51003 0 8.00009 0C7.49015 0 7.07656 0.413594 7.07656 0.923531V7.74584C7.07656 8.25594 7.48997 8.66941 8.00009 8.66941C8.51018 8.66944 8.92378 8.256 8.92378 7.74587Z" fill="#00FFFF"/>
</svg>