<svg xmlns="http://www.w3.org/2000/svg" width="29" height="27" viewBox="0 0 29 27" fill="none">
  <path d="M31 22.8667V27.0014H-2V22.8819C-0.0805697 20.3168 2.41087 18.2348 5.27621 16.8017C8.14155 15.3686 11.3017 14.6237 14.5055 14.6264C21.2485 14.6264 27.238 17.8631 31 22.8667ZM20.0028 6.375C20.0028 7.83369 19.4233 9.23264 18.3918 10.2641C17.3604 11.2955 15.9614 11.875 14.5028 11.875C13.0441 11.875 11.6451 11.2955 10.6137 10.2641C9.58221 9.23264 9.00275 7.83369 9.00275 6.375C9.00275 4.91631 9.58221 3.51736 10.6137 2.48591C11.6451 1.45446 13.0441 0.875 14.5028 0.875C15.9614 0.875 17.3604 1.45446 18.3918 2.48591C19.4233 3.51736 20.0028 4.91631 20.0028 6.375Z" fill="#6CD9D9"/>
</svg>