<svg xmlns="http://www.w3.org/2000/svg" width="24" height="24" viewBox="0 0 24 24" fill="none">
<path d="M11.9499 13.4643L16.7071 8.70711C17.0976 8.31658 17.0976 7.68342 16.7071 7.29289C16.3166 6.90237 15.6834 6.90237 15.2929 7.29289L10.5357 12.0501L11.9499 13.4643Z" fill="#00FFFF"/>
<path d="M8.29369 16.8792L6.30684 14.8924C6.30216 14.8879 6.29751 14.8833 6.29289 14.8787L3.70711 12.2929C3.31658 11.9024 2.68342 11.9024 2.29289 12.2929C1.90237 12.6834 1.90237 13.3166 2.29289 13.7071L4.87868 16.2929C5.80237 17.2166 7.17853 17.412 8.29369 16.8792Z" fill="#00FFFF"/>
<path fill-rule="evenodd" clip-rule="evenodd" d="M21.7063 7.24309C22.0968 7.63361 22.0968 8.26678 21.7063 8.6573L14.0705 16.2931C12.899 17.4646 10.9995 17.4647 9.8279 16.2931L7.24211 13.7073C6.85159 13.3168 6.85159 12.6836 7.24211 12.2931C7.63264 11.9026 8.2658 11.9026 8.65633 12.2931L11.2421 14.8789C11.6326 15.2694 12.2658 15.2694 12.6563 14.8789L20.2921 7.24309C20.6826 6.85256 21.3158 6.85256 21.7063 7.24309Z" fill="#00FFFF"/>
</svg>