<svg xmlns="http://www.w3.org/2000/svg" width="40" height="40" viewBox="0 0 40 40" fill="none">
<path d="M34.2362 11.6652C33.7412 10.7904 33.0269 10.0453 32.1428 9.52326C32.1393 9.51957 32.1358 9.51957 32.1323 9.51605L22.3762 3.78162C22.3621 3.77442 22.3515 3.76721 22.3373 3.76C20.5622 2.73774 18.384 2.74494 16.6231 3.79252L7.97029 8.91123L7.88896 8.95799C7.00495 9.48002 6.29419 10.2179 5.80267 11.0892C5.31823 11.9351 5.04595 12.9107 5.03181 13.922V13.9941L5 25.4053V25.4267C5 27.5003 6.08555 29.419 7.84299 30.4664C7.85359 30.4737 7.86067 30.4773 7.87129 30.4845L10.5446 32.0539L17.6273 36.2152C18.5184 36.7407 19.5156 37 20.5092 37C21.5028 36.9963 22.4929 36.73 23.3805 36.208L32.1146 31.0423C32.1181 31.0388 32.1216 31.0388 32.1252 31.0351C33.8791 29.9913 34.9646 28.0798 34.9682 26.0064L35 14.5952V14.5736C35 13.5369 34.7277 12.5363 34.2362 11.6652Z" fill="#DBD8DD"/>
<path d="M23.2311 16.6811C21.5482 17.5233 19.5869 17.5387 17.8918 16.7229L6 11L17.0512 18.3937C18.7184 19.5093 19.7672 21.3801 19.8725 23.4263L20.5711 37L21.4983 23.0972C21.6283 21.1485 22.6138 19.3675 24.1747 18.2606L34 11.2922L23.2311 16.6811Z" fill="#EDEDED"/>
<path d="M20 9C18.3432 9 17 9.6716 17 10.5001C17 11.3284 18.3432 12 20 12C21.6568 12 23 11.3284 23 10.5001C23 9.6716 21.6568 9 20 9Z" fill="#304551"/>
<path d="M27.1725 21.1382C26.2779 20.6867 25.0276 21.3779 24.38 22.6824C23.7324 23.9868 23.9327 25.4103 24.8273 25.8618C25.7221 26.3134 26.9724 25.6222 27.62 24.3178C28.2676 23.0133 28.0673 21.5898 27.1725 21.1382Z" fill="#4288B9"/>
<path d="M31.3794 25.1105C30.7084 24.7494 29.7707 25.3023 29.285 26.346C28.7993 27.3894 28.9495 28.5282 29.6205 28.8894C30.2915 29.2507 31.2293 28.6977 31.715 27.6543C32.2007 26.6106 32.0505 25.4718 31.3794 25.1105Z" fill="#4288B9"/>
<path d="M13.9535 21.0163C14.7426 20.6213 15.8456 21.2261 16.4169 22.3675C16.9882 23.5086 16.8115 24.7541 16.0223 25.1491C15.233 25.5442 14.13 24.9395 13.5587 23.7983C12.9874 22.6569 13.1642 21.4114 13.9535 21.0163Z" fill="#DE594E"/>
<path d="M8.55017 24.756C9.33932 24.361 10.4423 24.9658 11.0136 26.1071C11.5849 27.2483 11.4081 28.4938 10.619 28.8888C9.82967 29.2839 8.72667 28.6792 8.15537 27.538C7.5841 26.3966 7.76084 25.1511 8.55017 24.756Z" fill="#DE594E"/>
<path d="M8.76514 18.829C9.55428 18.434 10.6573 19.0388 11.2286 20.1801C11.7998 21.3213 11.6231 22.5668 10.834 22.9618C10.0446 23.3569 8.94164 22.7522 8.37033 21.611C7.79906 20.4696 7.97581 19.2241 8.76514 18.829Z" fill="#DE594E"/>
<path d="M13.454 27.1402C14.2431 26.7452 15.3461 27.35 15.9174 28.4914C16.4887 29.6325 16.312 30.878 15.5228 31.273C14.7335 31.6681 13.6305 31.0634 13.0592 29.9222C12.4879 28.7808 12.6647 27.5353 13.454 27.1402Z" fill="#DE594E"/>
</svg>