<svg xmlns="http://www.w3.org/2000/svg" width="20" height="20" viewBox="0 0 20 20" fill="none">
  <g clip-path="url(#clip0_1474_11912)">
    <path d="M19.5 10C19.5 15.2467 15.2467 19.5 10 19.5C4.7533 19.5 0.5 15.2467 0.5 10C0.5 4.7533 4.7533 0.5 10 0.5C15.2467 0.5 19.5 4.7533 19.5 10Z" fill="#E2333D" stroke="#022A27"/>
    <path fill-rule="evenodd" clip-rule="evenodd" d="M10.729 14.8821L13.961 11.6581C14.123 11.4971 14.009 11.2201 13.78 11.2201H12.666C12.598 11.2201 12.533 11.2471 12.485 11.2951L12.03 11.7481C11.868 11.9091 11.593 11.7951 11.593 11.5671V9.21913C11.593 9.07713 11.708 8.96313 11.849 8.96313H14.105C14.173 8.96313 14.238 8.99013 14.286 9.03813L14.32 9.07213C14.42 9.17213 14.42 9.33413 14.32 9.43413L14.273 9.48113C14.112 9.64213 14.226 9.91813 14.454 9.91813H15.582C15.65 9.91813 15.715 9.89113 15.763 9.84313L16.177 9.42913C16.277 9.32913 16.277 9.16713 16.177 9.06713L14.846 7.73613C14.798 7.68813 14.733 7.66113 14.665 7.66113H10.546C10.404 7.66113 10.29 7.77613 10.29 7.91713V14.7001C10.29 14.9281 10.566 15.0431 10.727 14.8811L10.729 14.8821Z" fill="white"/>
    <path fill-rule="evenodd" clip-rule="evenodd" d="M9.70204 9.66311V7.91811C9.70204 7.77611 9.58704 7.66211 9.44604 7.66211H5.31404C5.24604 7.66211 5.18104 7.68911 5.13304 7.73711L3.79304 9.07011C3.69204 9.17011 3.69204 9.33311 3.79304 9.43311C5.61704 11.2491 7.44104 13.0671 9.26404 14.8831C9.42604 15.0441 9.70104 14.9291 9.70104 14.7011V11.4771C9.70104 11.3351 9.58604 11.2211 9.44504 11.2211H8.65604C8.51404 11.2211 8.40004 11.3361 8.40004 11.4771V11.5491C8.40004 11.7771 8.12604 11.8911 7.96404 11.7311L5.63904 9.43511C5.53804 9.33511 5.53704 9.17111 5.63904 9.07111L5.67304 9.03711C5.72104 8.98911 5.78604 8.96311 5.85404 8.96311H8.14504C8.28703 8.96311 8.40104 9.07811 8.40104 9.21911V9.66211C8.40104 9.80411 8.51604 9.91811 8.65704 9.91811H9.44604C9.58804 9.91811 9.70204 9.80311 9.70204 9.66211V9.66311Z" fill="white"/>
    <path fill-rule="evenodd" clip-rule="evenodd" d="M9.11507 6.964L9.77707 5.818C9.87607 5.647 10.1221 5.647 10.2211 5.818L10.8821 6.964C10.9281 7.043 11.0121 7.092 11.1041 7.092H12.0121C12.2091 7.092 12.3331 6.878 12.2341 6.708L10.2211 3.222C10.1221 3.051 9.87607 3.051 9.77707 3.222L7.76407 6.708C7.66507 6.879 7.78907 7.092 7.98607 7.092H8.89307C8.98507 7.092 9.06907 7.043 9.11507 6.964Z" fill="white"/>
    <path fill-rule="evenodd" clip-rule="evenodd" d="M7.11699 13.6619H5.68299C5.48599 13.6619 5.36199 13.4479 5.46099 13.2779L5.86699 12.5739C5.92499 12.4729 5.90799 12.3469 5.82599 12.2649L5.24699 11.6869C5.12799 11.5679 4.92799 11.5939 4.84399 11.7399L3.20499 14.5799C3.10599 14.7509 3.22999 14.9639 3.42699 14.9639H7.90599C8.13399 14.9639 8.24899 14.6879 8.08699 14.5259L7.29699 13.7369C7.24899 13.6889 7.18399 13.6619 7.11599 13.6619H7.11699Z" fill="white"/>
    <path fill-rule="evenodd" clip-rule="evenodd" d="M12.7001 13.7369L11.9111 14.5259C11.7501 14.6869 11.8641 14.9629 12.0921 14.9629H16.5721C16.7691 14.9629 16.8931 14.7489 16.7941 14.5789L15.1531 11.7389C15.0691 11.5929 14.8691 11.5669 14.7501 11.6859L14.1711 12.2639C14.0891 12.3459 14.0721 12.4729 14.1301 12.5729L14.5361 13.2769C14.6351 13.4479 14.5111 13.6609 14.3141 13.6609H12.8801C12.8121 13.6609 12.7471 13.6879 12.6991 13.7359L12.7001 13.7369Z" fill="white"/>
  </g>
  <defs>
    <clipPath id="clip0_1474_11912">
      <rect width="20" height="20" fill="white"/>
    </clipPath>
  </defs>
</svg>