<svg xmlns="http://www.w3.org/2000/svg" width="17" height="20" viewBox="0 0 17 20" fill="none">
  <ellipse cx="8.03794" cy="8.45041" rx="7.46396" ry="7.32394" fill="#022A27"/>
  <path d="M10.8383 3.80957H5.66181C5.5331 3.80957 5.40966 3.85974 5.31865 3.94904C5.22764 4.03835 5.17651 4.15947 5.17651 4.28576V12.381H7.11769V10C7.11769 9.87375 7.16882 9.75263 7.25983 9.66333C7.35084 9.57403 7.47428 9.52386 7.60298 9.52386H8.8971C9.02581 9.52386 9.14925 9.57403 9.24026 9.66333C9.33127 9.75263 9.3824 9.87375 9.3824 10V12.381H11.3236V4.28576C11.3236 4.15947 11.2724 4.03835 11.1814 3.94904C11.0904 3.85974 10.967 3.80957 10.8383 3.80957ZM6.79416 8.09528C6.79416 8.22158 6.74303 8.3427 6.65202 8.432C6.56101 8.5213 6.43757 8.57148 6.30887 8.57148C6.18016 8.57148 6.05672 8.5213 5.96571 8.432C5.8747 8.3427 5.82357 8.22158 5.82357 8.09528V7.46036C5.82357 7.33407 5.8747 7.21295 5.96571 7.12365C6.05672 7.03434 6.18016 6.98417 6.30887 6.98417C6.43757 6.98417 6.56101 7.03434 6.65202 7.12365C6.74303 7.21295 6.79416 7.33407 6.79416 7.46036V8.09528ZM6.79416 5.5556C6.79416 5.6819 6.74303 5.80302 6.65202 5.89232C6.56101 5.98162 6.43757 6.03179 6.30887 6.03179C6.18016 6.03179 6.05672 5.98162 5.96571 5.89232C5.8747 5.80302 5.82357 5.6819 5.82357 5.5556V4.92068C5.82357 4.79439 5.8747 4.67327 5.96571 4.58396C6.05672 4.49466 6.18016 4.44449 6.30887 4.44449C6.43757 4.44449 6.56101 4.49466 6.65202 4.58396C6.74303 4.67327 6.79416 4.79439 6.79416 4.92068V5.5556ZM8.73534 8.09528C8.73534 8.22158 8.68421 8.3427 8.5932 8.432C8.50219 8.5213 8.37875 8.57148 8.25004 8.57148C8.12134 8.57148 7.9979 8.5213 7.90689 8.432C7.81588 8.3427 7.76475 8.22158 7.76475 8.09528V7.46036C7.76475 7.33407 7.81588 7.21295 7.90689 7.12365C7.9979 7.03434 8.12134 6.98417 8.25004 6.98417C8.37875 6.98417 8.50219 7.03434 8.5932 7.12365C8.68421 7.21295 8.73534 7.33407 8.73534 7.46036V8.09528ZM8.73534 5.5556C8.73534 5.6819 8.68421 5.80302 8.5932 5.89232C8.50219 5.98162 8.37875 6.03179 8.25004 6.03179C8.12134 6.03179 7.9979 5.98162 7.90689 5.89232C7.81588 5.80302 7.76475 5.6819 7.76475 5.5556V4.92068C7.76475 4.79439 7.81588 4.67327 7.90689 4.58396C7.9979 4.49466 8.12134 4.44449 8.25004 4.44449C8.37875 4.44449 8.50219 4.49466 8.5932 4.58396C8.68421 4.67327 8.73534 4.79439 8.73534 4.92068V5.5556ZM10.6765 8.09528C10.6765 8.22158 10.6254 8.3427 10.5344 8.432C10.4434 8.5213 10.3199 8.57148 10.1912 8.57148C10.0625 8.57148 9.93907 8.5213 9.84806 8.432C9.75705 8.3427 9.70593 8.22158 9.70593 8.09528V7.46036C9.70593 7.33407 9.75705 7.21295 9.84806 7.12365C9.93907 7.03434 10.0625 6.98417 10.1912 6.98417C10.3199 6.98417 10.4434 7.03434 10.5344 7.12365C10.6254 7.21295 10.6765 7.33407 10.6765 7.46036V8.09528ZM10.6765 5.5556C10.6765 5.6819 10.6254 5.80302 10.5344 5.89232C10.4434 5.98162 10.3199 6.03179 10.1912 6.03179C10.0625 6.03179 9.93907 5.98162 9.84806 5.89232C9.75705 5.80302 9.70593 5.6819 9.70593 5.5556V4.92068C9.70593 4.79439 9.75705 4.67327 9.84806 4.58396C9.93907 4.49466 10.0625 4.44449 10.1912 4.44449C10.3199 4.44449 10.4434 4.49466 10.5344 4.58396C10.6254 4.67327 10.6765 4.79439 10.6765 4.92068V5.5556Z" fill="#00FFFF"/>
  <path d="M8.25 0C3.70093 0 0 3.63151 0 8.09524C0 9.47766 0.427382 10.9649 1.27034 12.5159C1.9324 13.7339 2.85244 14.9966 4.00493 16.2689C5.95614 18.4227 7.87794 19.8452 7.95882 19.9048C8.04283 19.9666 8.145 20 8.25 20C8.355 20 8.45717 19.9666 8.54118 19.9048C8.62206 19.8452 10.5439 18.4227 12.4951 16.2688C13.6476 14.9965 14.5676 13.7338 15.2297 12.5158C16.0726 10.9649 16.5 9.47766 16.5 8.09524C16.5 3.63151 12.7991 0 8.25 0ZM8.25 14.4444C7.35245 14.4448 6.46469 14.2615 5.64341 13.9062C4.82214 13.5509 4.08541 13.0314 3.48029 12.381H4.69118V8.25397H1.78147C1.78013 8.20106 1.77944 8.14815 1.77941 8.09524C1.77941 4.59429 4.68212 1.74603 8.25 1.74603C11.8179 1.74603 14.7206 4.59429 14.7206 8.09524C14.7206 8.14828 14.7199 8.20119 14.7185 8.25397H11.8088V12.381H13.0197C12.4146 13.0314 11.6779 13.5509 10.8566 13.9062C10.0353 14.2615 9.14755 14.4448 8.25 14.4444Z" fill="#00FFFF"/>
</svg>