<svg xmlns="http://www.w3.org/2000/svg" width="40" height="40" viewBox="0 0 40 40" fill="none">
  <path d="M21 38C30.9411 38 39 30.165 39 20.5C39 10.835 30.9411 3 21 3C11.0589 3 3 10.835 3 20.5C3 30.165 11.0589 38 21 38Z" fill="url(#paint0_linear_1640_15612)"/>
  <path d="M33.6791 11.2919C33.0612 10.8506 32.4061 10.4458 31.7195 10.0783C31.3414 9.41071 30.9252 8.77379 30.4712 8.17305C27.9507 4.83716 24.587 3 21 3C17.4129 3 14.0493 4.83716 11.5288 8.17305C11.0748 8.77379 10.6586 9.41079 10.2805 10.0783C9.59388 10.4458 8.93875 10.8505 8.32085 11.2919C4.88965 13.7424 3 17.0126 3 20.5C3 23.9874 4.88965 27.2577 8.32085 29.7081C8.93875 30.1495 9.59395 30.5541 10.2805 30.9217C10.6586 31.5892 11.0748 32.2262 11.5288 32.8269C14.0493 36.1628 17.4129 38 21 38C24.587 38 27.9507 36.1628 30.4712 32.8269C30.9252 32.2262 31.3414 31.5892 31.7195 30.9216C32.4061 30.5541 33.0613 30.1494 33.6791 29.7081C37.1104 27.2576 39 23.9874 39 20.4999C39 17.0125 37.1104 13.7424 33.6791 11.2919ZM21 37.1762C20.0115 37.1762 18.9637 35.7445 18.1353 33.3017C19.0742 33.409 20.0312 33.4647 21 33.4647C21.9688 33.4647 22.9258 33.409 23.8647 33.3017C23.0363 35.7446 21.9885 37.1762 21 37.1762ZM21 32.6409C19.929 32.6409 18.8809 32.5704 17.8637 32.4368C17.2992 30.4962 16.8893 28.1667 16.6548 25.6233C18.059 25.7209 19.5158 25.7712 21 25.7712C22.4842 25.7712 23.941 25.7209 25.3452 25.6233C25.1108 28.1667 24.7009 30.4961 24.1364 32.4368C23.1192 32.5704 22.0711 32.6409 21 32.6409ZM21 3.82387C21.9885 3.82387 23.0363 5.25554 23.8647 7.69838C22.9258 7.59096 21.9688 7.53532 21 7.53532C20.0312 7.53532 19.0742 7.59096 18.1353 7.69838C18.9637 5.25546 20.0115 3.82387 21 3.82387ZM21 8.35919C22.0711 8.35919 23.1192 8.42969 24.1364 8.56332C24.7009 10.504 25.1108 12.8334 25.3452 15.3768C23.941 15.2792 22.4842 15.2289 21 15.2289C19.5158 15.2289 18.0591 15.2792 16.6548 15.3768C16.8892 12.8334 17.2991 10.504 17.8637 8.56332C18.8809 8.42969 19.929 8.35919 21 8.35919ZM16.4255 20.5C16.4255 19.0311 16.48 17.5917 16.585 16.2076C18.0086 16.1055 19.4891 16.0526 21 16.0526C22.5109 16.0526 23.9914 16.1055 25.415 16.2076C25.52 17.5917 25.5745 19.031 25.5745 20.5C25.5745 21.969 25.52 23.4083 25.415 24.7923C23.9914 24.8944 22.5109 24.9474 21 24.9474C19.4892 24.9474 18.0086 24.8944 16.585 24.7923C16.48 23.4084 16.4255 21.969 16.4255 20.5ZM15.7303 24.7245C13.1143 24.4966 10.7182 24.0981 8.7222 23.5492C8.58482 22.5602 8.51224 21.5413 8.51224 20.5C8.51224 19.4587 8.58475 18.4398 8.7222 17.4508C10.7182 16.902 13.1143 16.5035 15.7303 16.2755C15.6299 17.6407 15.5782 19.057 15.5782 20.5C15.5782 21.943 15.6299 23.3593 15.7303 24.7245ZM26.2698 16.2756C28.8858 16.5035 31.2818 16.902 33.2779 17.4509C33.4153 18.4399 33.4878 19.4588 33.4878 20.5001C33.4878 21.5413 33.4153 22.5603 33.2779 23.5493C31.2818 24.0981 28.8858 24.4966 26.2698 24.7246C26.3701 23.3594 26.4219 21.943 26.4219 20.5001C26.4219 19.057 26.3701 17.6407 26.2698 16.2756ZM26.2018 15.4427C25.9787 12.9498 25.5897 10.651 25.0543 8.70271C27.264 9.08322 29.3074 9.76734 31.0913 10.6891C32.0394 12.4234 32.743 14.41 33.1344 16.5583C31.1305 16.0379 28.766 15.6597 26.2018 15.4427ZM15.7982 15.4427C13.234 15.6597 10.8695 16.0379 8.86557 16.5583C9.25695 14.41 9.96062 12.4234 10.9087 10.6891C12.6926 9.76734 14.7359 9.08322 16.9457 8.70271C16.4103 10.651 16.0214 12.9498 15.7982 15.4427ZM7.83254 23.2851C5.31991 22.4797 3.84733 21.4611 3.84733 20.5C3.84733 19.5389 5.31983 18.5203 7.83254 17.7149C7.72213 18.6277 7.66483 19.5581 7.66483 20.5C7.66483 21.4419 7.72213 22.3723 7.83254 23.2851ZM15.7982 25.5573C16.0213 28.0503 16.4103 30.3491 16.9457 32.2974C14.7359 31.9169 12.6926 31.2327 10.9087 30.311C9.96062 28.5767 9.25695 26.5901 8.86557 24.4417C10.8696 24.9622 13.2341 25.3404 15.7982 25.5573ZM26.2018 25.5573C28.766 25.3404 31.1305 24.9622 33.1344 24.4417C32.743 26.5901 32.0394 28.5767 31.0913 30.311C29.3074 31.2328 27.2641 31.9169 25.0543 32.2974C25.5897 30.3491 25.9787 28.0502 26.2018 25.5573ZM34.1675 17.715C36.6801 18.5203 38.1526 19.5389 38.1526 20.5001C38.1526 21.4611 36.6801 22.4798 34.1675 23.2852C34.2779 22.3724 34.3351 21.442 34.3351 20.5001C34.3352 19.5581 34.2779 18.6277 34.1675 17.715ZM37.9525 18.6447C37.1234 17.9573 35.8091 17.3394 34.0395 16.8107C33.7314 14.9137 33.1859 13.1065 32.4224 11.4512C35.3196 13.2853 37.3345 15.804 37.9525 18.6447ZM30.3075 9.39498C28.6049 8.65268 26.7459 8.12237 24.7948 7.82269C24.251 6.1022 23.6154 4.82441 22.9084 4.01831C25.8303 4.61926 28.4209 6.57819 30.3075 9.39498ZM19.0917 4.01839C18.3847 4.82449 17.7491 6.10227 17.2053 7.82276C15.2541 8.12237 13.3952 8.65268 11.6926 9.39498C13.5791 6.57819 16.1697 4.61926 19.0917 4.01839ZM9.57762 11.4511C8.81418 13.1064 8.26865 14.9137 7.96048 16.8107C6.19083 17.3394 4.87654 17.9573 4.04741 18.6447C4.66545 15.804 6.68042 13.2853 9.57762 11.4511ZM4.04741 22.3554C4.87654 23.0428 6.19083 23.6607 7.96048 24.1894C8.26865 26.0863 8.81418 27.8936 9.57762 29.5489C6.68042 27.7148 4.66545 25.1961 4.04741 22.3554ZM11.6925 31.6051C13.3951 32.3474 15.2541 32.8777 17.2052 33.1773C17.749 34.8978 18.3846 36.1756 19.0916 36.9817C16.1697 36.3808 13.5791 34.4218 11.6925 31.6051ZM22.9083 36.9817C23.6153 36.1756 24.2509 34.8978 24.7947 33.1773C26.7459 32.8777 28.6048 32.3473 30.3074 31.6051C28.4209 34.4218 25.8303 36.3808 22.9083 36.9817ZM32.4224 29.5489C33.1859 27.8936 33.7314 26.0863 34.0395 24.1895C35.8092 23.6608 37.1235 23.0428 37.9525 22.3554C37.3345 25.1961 35.3196 27.7148 32.4224 29.5489Z" fill="url(#paint1_linear_1640_15612)"/>
  <path d="M14.9439 3.10102C10.683 4.76485 7.22051 8.19324 5.33422 12.556C5.11065 13.073 5 13.6374 5 14.2067C5 15.2672 5.39517 16.2841 6.0985 17.034L6.44631 17.4048C8.00504 19.0665 10.1191 20 12.3234 20C12.6528 20 12.9197 19.7154 12.9197 19.3644C12.9197 19.0133 12.6528 18.7287 12.3234 18.7287H10.4905C9.64518 18.7287 8.95983 17.9981 8.95983 17.0969C8.95983 16.1957 9.64511 15.4651 10.4905 15.4651H11.9221C13.6387 15.4651 15.285 14.7381 16.4988 13.4441L18.7092 11.0877C19.1905 10.5746 19.8433 10.2863 20.524 10.2863C21.5088 10.2863 22.4066 9.68567 22.835 8.7404C23.36 7.58193 22.5683 6.23682 21.3615 6.23682H18.5096C17.6711 6.23682 16.9914 5.51223 16.9914 4.61828C16.9913 3.4903 15.9376 2.71303 14.9439 3.10102Z" fill="url(#paint2_linear_1640_15612)"/>
  <path d="M38.5773 16.8888C38.3266 15.7825 37.3058 15 36.1371 15H33.578H32.21C29.8849 15 28 16.8266 28 19.0798V19.5762C28 21.5552 29.6556 23.1596 31.6978 23.1596C32.7362 23.1596 33.578 23.9754 33.578 24.9817V29.7395C33.578 30.9794 35.2392 31.4733 35.9502 30.4425C37.4278 28.3005 38.4329 25.826 38.8213 23.1596C38.9388 22.3496 39 21.5211 39 20.6794C38.9999 19.3778 38.8539 18.1096 38.5773 16.8888Z" fill="url(#paint3_linear_1640_15612)"/>
  <path d="M29.0816 4C30.292 6.41571 30.9743 9.14199 30.9743 12.0279C30.9743 21.9394 22.9395 29.9743 13.0279 29.9743C10.142 29.9743 7.41571 29.292 5 28.0816C7.94658 33.9624 14.0282 38 21.0537 38C30.9651 38 39 29.9652 39 20.0537C39 13.0282 34.9624 6.94658 29.0816 4Z" fill="url(#paint4_linear_1640_15612)"/>
  <path d="M30.3373 13.3326C29.4548 12.4574 27.2611 13.1812 23.0849 17.0495L20.6445 16.7512L19.8561 15.9446C19.4347 15.5267 18.7516 15.5267 18.3303 15.9446C18.2295 16.0445 18.154 16.1595 18.1017 16.2821L17.474 15.6558C17.0527 15.238 16.3696 15.238 15.9482 15.6558C15.8073 15.7956 15.7147 15.9646 15.6679 16.143L14.7241 16.0277C14.499 16.0001 14.2407 16.1022 14.0455 16.2959L12.4299 17.8981C12.2594 18.0672 12.2602 18.3108 12.4316 18.384L17.2935 23.0957C15.8761 24.731 14.581 26.3481 13.5867 27.7417L11.1663 27.4159C11.0691 27.4028 10.9568 27.4466 10.872 27.5307L10.118 28.2784C9.97246 28.4227 9.95943 28.6298 10.0907 28.7134L11.9084 30.4627C11.6033 31.1246 11.5191 31.5936 11.7214 31.7942L17.5421 37.5667C18.8002 37.8498 20.1093 38 21.4539 38C30.7066 38 38.2914 30.9192 39 21.9236L30.3373 13.3326Z" fill="url(#paint5_linear_1640_15612)"/>
  <path d="M16 17C16.5523 17 17 16.5523 17 16C17 15.4477 16.5523 15 16 15C15.4477 15 15 15.4477 15 16C15 16.5523 15.4477 17 16 17Z" fill="url(#paint6_linear_1640_15612)"/>
  <path d="M16 17C16.5523 17 17 16.5523 17 16C17 15.4477 16.5523 15 16 15C15.4477 15 15 15.4477 15 16C15 16.5523 15.4477 17 16 17Z" fill="url(#paint7_linear_1640_15612)"/>
  <path d="M16.9489 16C16.9014 16.1085 16.8208 16.2106 16.7071 16.297C16.3166 16.5937 15.6834 16.5937 15.2929 16.297C15.1791 16.2106 15.0986 16.1085 15.0511 16C14.9355 16.2642 15.016 16.5672 15.2929 16.7775C15.6834 17.0742 16.3166 17.0742 16.7071 16.7775C16.984 16.5672 17.0645 16.2643 16.9489 16Z" fill="url(#paint8_linear_1640_15612)"/>
  <path d="M16 17C16.5523 17 17 16.5523 17 16C17 15.4477 16.5523 15 16 15C15.4477 15 15 15.4477 15 16C15 16.5523 15.4477 17 16 17Z" fill="url(#paint9_linear_1640_15612)"/>
  <path d="M19.7071 16.7071C19.3166 17.0976 18.6835 17.0976 18.2929 16.7071C17.9024 16.3166 17.9024 15.6834 18.2929 15.2929C18.6835 14.9024 19.3166 14.9024 19.7071 15.2929C20.0976 15.6834 20.0976 16.3166 19.7071 16.7071Z" fill="url(#paint10_linear_1640_15612)"/>
  <path d="M19 17C19.5523 17 20 16.5523 20 16C20 15.4477 19.5523 15 19 15C18.4477 15 18 15.4477 18 16C18 16.5523 18.4477 17 19 17Z" fill="url(#paint11_linear_1640_15612)"/>
  <path d="M19.9489 16C19.9014 16.1085 19.8208 16.2106 19.7071 16.297C19.3166 16.5937 18.6834 16.5937 18.2929 16.297C18.1791 16.2106 18.0986 16.1085 18.0511 16C17.9355 16.2642 18.016 16.5672 18.2929 16.7775C18.6834 17.0742 19.3166 17.0742 19.7071 16.7775C19.984 16.5671 20.0645 16.2642 19.9489 16Z" fill="url(#paint12_linear_1640_15612)"/>
  <path d="M19.7071 16.7071C19.3166 17.0976 18.6835 17.0976 18.2929 16.7071C17.9024 16.3166 17.9024 15.6834 18.2929 15.2929C18.6835 14.9024 19.3166 14.9024 19.7071 15.2929C20.0976 15.6834 20.0976 16.3166 19.7071 16.7071Z" fill="url(#paint13_linear_1640_15612)"/>
  <path d="M27 28C27.5523 28 28 27.5523 28 27C28 26.4477 27.5523 26 27 26C26.4477 26 26 26.4477 26 27C26 27.5523 26.4477 28 27 28Z" fill="url(#paint14_linear_1640_15612)"/>
  <path d="M27 28C27.5523 28 28 27.5523 28 27C28 26.4477 27.5523 26 27 26C26.4477 26 26 26.4477 26 27C26 27.5523 26.4477 28 27 28Z" fill="url(#paint15_linear_1640_15612)"/>
  <path d="M27 26.0511C26.8915 26.0986 26.7894 26.1792 26.703 26.2928C26.4063 26.6834 26.4063 27.3166 26.703 27.7071C26.7894 27.8209 26.8915 27.9014 27 27.9489C26.7358 28.0645 26.4328 27.984 26.2225 27.7071C25.9258 27.3166 25.9258 26.6834 26.2225 26.2928C26.4328 26.016 26.7357 25.9355 27 26.0511Z" fill="url(#paint16_linear_1640_15612)"/>
  <path d="M27 28C27.5523 28 28 27.5523 28 27C28 26.4477 27.5523 26 27 26C26.4477 26 26 26.4477 26 27C26 27.5523 26.4477 28 27 28Z" fill="url(#paint17_linear_1640_15612)"/>
  <path d="M26.2929 23.2929C25.9024 23.6834 25.9024 24.3166 26.2929 24.7071C26.6834 25.0976 27.3166 25.0976 27.7071 24.7071C28.0976 24.3166 28.0976 23.6834 27.7071 23.2929C27.3166 22.9024 26.6834 22.9024 26.2929 23.2929Z" fill="url(#paint18_linear_1640_15612)"/>
  <path d="M27 25C27.5523 25 28 24.5523 28 24C28 23.4477 27.5523 23 27 23C26.4477 23 26 23.4477 26 24C26 24.5523 26.4477 25 27 25Z" fill="url(#paint19_linear_1640_15612)"/>
  <path d="M27 23.0511C26.8915 23.0986 26.7894 23.1792 26.703 23.2928C26.4063 23.6834 26.4063 24.3166 26.703 24.7071C26.7894 24.8209 26.8915 24.9014 27 24.9489C26.7358 25.0645 26.4328 24.984 26.2225 24.7071C25.9258 24.3166 25.9258 23.6834 26.2225 23.2928C26.4328 23.016 26.7357 22.9355 27 23.0511Z" fill="url(#paint20_linear_1640_15612)"/>
  <path d="M26.2929 23.2929C25.9024 23.6834 25.9024 24.3166 26.2929 24.7071C26.6834 25.0976 27.3166 25.0976 27.7071 24.7071C28.0976 24.3166 28.0976 23.6834 27.7071 23.2929C27.3166 22.9024 26.6834 22.9024 26.2929 23.2929Z" fill="url(#paint21_linear_1640_15612)"/>
  <path d="M10.0769 28.406L12.0385 30L14 27.5192L10.9893 27.0025C10.9068 26.9883 10.8115 27.0357 10.7396 27.1266L10.1001 27.9355C9.97662 28.0916 9.96563 28.3156 10.0769 28.406Z" fill="url(#paint22_linear_1640_15612)"/>
  <path d="M10.3282 28.1041L10.1127 28.3029C9.9737 28.4313 9.96125 28.6154 10.0866 28.6898L12.2958 30L14 28.4268L10.6093 28.002C10.5164 27.9904 10.4091 28.0294 10.3282 28.1041Z" fill="url(#paint23_linear_1640_15612)"/>
  <path d="M14.594 32.9231L13 30.9615L15.4808 29L15.9975 32.0107C16.0117 32.0932 15.9643 32.1885 15.8734 32.2604L15.0646 32.8999C14.9084 33.0234 14.6844 33.0344 14.594 32.9231Z" fill="url(#paint24_linear_1640_15612)"/>
  <path d="M14.8959 32.6718L14.6971 32.8873C14.5687 33.0263 14.3846 33.0388 14.3102 32.9134L13 30.7042L14.5732 29L14.998 32.3907C15.0096 32.4836 14.9706 32.5909 14.8959 32.6718Z" fill="url(#paint25_linear_1640_15612)"/>
  <path d="M12.1304 18.1437L19.5694 21L24 17.0527L14.4478 16.004C14.2203 15.979 13.9591 16.0717 13.7618 16.2476L12.1287 17.7026C11.9564 17.856 11.9572 18.0772 12.1304 18.1437Z" fill="url(#paint26_linear_1640_15612)"/>
  <path d="M12.7127 17.2438L12.1294 17.753C11.9562 17.9042 11.957 18.1221 12.1311 18.1875L19.6058 21L23 18.0366L13.4019 17.004C13.1733 16.9793 12.911 17.0706 12.7127 17.2438Z" fill="url(#paint27_linear_1640_15612)"/>
  <path d="M17 17.3503L13.4063 17.0036C13.177 16.9814 12.9139 17.0635 12.7149 17.2193L12.1298 17.6774C11.956 17.8135 11.9569 18.0094 12.1315 18.0683L14.8929 19L17 17.3503Z" fill="url(#paint28_linear_1640_15612)"/>
  <path d="M12.1291 18.0976L19.492 21L21 19.6207L12.8373 17L12.1275 17.6492C11.9568 17.8052 11.9577 18.03 12.1291 18.0976Z" fill="url(#paint29_linear_1640_15612)"/>
  <path d="M24.8562 30.8696L22 23.4306L25.9473 19L26.996 28.5522C27.021 28.7797 26.9283 29.0409 26.7524 29.2382L25.2975 30.8712C25.1439 31.0436 24.9227 31.0428 24.8562 30.8696Z" fill="url(#paint30_linear_1640_15612)"/>
  <path d="M25.7562 30.2873L25.2469 30.8706C25.0957 31.0438 24.8779 31.043 24.8124 30.8689L22 23.3942L24.9634 20L25.996 29.5981C26.0206 29.8267 25.9294 30.089 25.7562 30.2873Z" fill="url(#paint31_linear_1640_15612)"/>
  <path d="M25.6497 26L25.9964 29.5937C26.0186 29.823 25.9365 30.0861 25.7807 30.2851L25.3226 30.8702C25.1865 31.044 24.9906 31.0431 24.9317 30.8685L24 28.1071L25.6497 26Z" fill="url(#paint32_linear_1640_15612)"/>
  <path d="M24.9024 30.8709L22 23.508L23.3793 22L26 30.1628L25.3507 30.8726C25.1948 31.0431 24.97 31.0423 24.9024 30.8709Z" fill="url(#paint33_linear_1640_15612)"/>
  <path d="M24.5129 22.0269C19.3889 27.1509 12.0875 32.8674 11.1101 31.8899C10.1326 30.9125 15.8491 23.6111 20.9731 18.4871C26.097 13.3632 28.6881 12.3569 29.6656 13.3344C30.6431 14.3119 29.6369 16.903 24.5129 22.0269Z" fill="url(#paint34_linear_1640_15612)"/>
  <path d="M24.6593 21.3523C19.7834 26.2282 12.9153 31.7479 12.0837 30.9162C11.2521 30.0846 16.7718 23.2166 21.6477 18.3407C26.5237 13.4647 28.9094 12.4273 29.741 13.2589C30.5727 14.0906 29.5352 16.4764 24.6593 21.3523Z" fill="url(#paint35_linear_1640_15612)"/>
  <path d="M24.4809 21.8482C29.6347 16.6324 30.6469 13.995 29.6637 13L11 31.888C11.9832 32.8829 19.3271 27.064 24.4809 21.8482Z" fill="url(#paint36_linear_1640_15612)"/>
  <path d="M25.8424 15.181C25.5906 15.4002 25.3265 15.6362 25.0494 15.8898C24.9786 15.9547 24.985 16.0553 25.0616 16.0692C25.5356 16.1545 25.9635 16.3621 26.3007 16.6993C26.6379 17.0365 26.8455 17.4645 26.9309 17.9384C26.9447 18.015 27.0453 18.0214 27.1102 17.9506C27.3638 17.6735 27.5998 17.4094 27.819 17.1576C27.9682 16.9862 28.0325 16.7706 27.9842 16.5966C27.8785 16.2165 27.6874 15.8734 27.407 15.593C27.1265 15.3126 26.7835 15.1214 26.4034 15.0159C26.2294 14.9675 26.0138 15.0318 25.8424 15.181Z" fill="url(#paint37_linear_1640_15612)"/>
  <path d="M27.7901 17.0739C27.5668 17.3177 27.3279 17.5719 27.0734 17.837C27.0388 17.873 27.0042 17.909 26.9689 17.9457C26.8936 18.0236 26.7768 18.0165 26.7605 17.9322C26.6621 17.411 26.4212 16.9407 26.0303 16.5701C26.0072 16.5482 25.9841 16.527 25.9603 16.507C25.6828 16.2632 25.357 16.0869 25 15.9749C25.321 15.6976 25.6258 15.439 25.9169 15.199C26.1158 15.0349 26.3655 14.9641 26.5671 15.0175C26.8067 15.0806 27.0334 15.1713 27.2431 15.291C27.2668 15.3116 27.2899 15.3328 27.313 15.3547C27.6381 15.6629 27.8593 16.0399 27.9815 16.4575C28.0378 16.6486 27.9632 16.8854 27.7901 17.0739Z" fill="url(#paint38_linear_1640_15612)"/>
  <path d="M26.7417 17.9232C26.7579 18.0187 26.8764 18.0267 26.9528 17.9384C27.2512 17.5931 27.529 17.2638 27.787 16.95C27.9626 16.7364 28.0382 16.4677 27.9814 16.2509C27.8571 15.777 27.6321 15.3495 27.3021 15L26 16.3789C26.3969 16.7991 26.6412 17.3325 26.7417 17.9232Z" fill="url(#paint39_linear_1640_15612)"/>
  <path d="M13.2112 29.9315L13.0685 29.7888C12.9492 29.6695 12.9901 29.4401 13.1575 29.2903L15.6219 27.0842C15.7302 26.9873 15.8737 26.9719 15.9509 27.0492C16.028 27.1264 16.0128 27.2699 15.9158 27.3781L13.7097 29.8425C13.5599 30.0099 13.3305 30.0508 13.2112 29.9315Z" fill="url(#paint40_linear_1640_15612)"/>
  <path d="M3.39128 36C3.23427 36 3.08318 35.9904 2.93913 35.9716C2.73655 35.9449 2.60379 35.7466 2.65842 35.5502L2.80824 35.0107C2.85149 34.855 2.99982 34.7517 3.16094 34.7674C3.46357 34.797 3.83894 34.7644 4.27022 34.6703C4.44458 34.6322 4.6185 34.7377 4.6649 34.9097L4.80925 35.4445C4.85917 35.6295 4.7428 35.817 4.55526 35.8586C4.13162 35.9525 3.74128 36 3.39128 36ZM6.07666 35.0163L5.86899 34.5033C5.80074 34.3347 5.87984 34.1434 6.04725 34.0715C6.42367 33.9099 6.82216 33.7209 7.2378 33.5071C7.40049 33.4234 7.60082 33.4853 7.68696 33.6465L7.94783 34.1346C8.03584 34.2992 7.97126 34.5041 7.80505 34.5897C7.35746 34.8201 6.92686 35.024 6.51863 35.199C6.34629 35.2729 6.147 35.19 6.07666 35.0163ZM1.54001 34.5885C1.3503 34.6686 1.13216 34.5612 1.08359 34.3614C1.02806 34.1326 1 33.8827 1 33.6143C1 33.3319 1.03106 33.0229 1.09265 32.6923C1.12774 32.5037 1.31326 32.3819 1.50027 32.4262L2.04028 32.5543C2.21278 32.5952 2.32398 32.7638 2.29225 32.9379C2.2472 33.1854 2.22445 33.412 2.22445 33.6141C2.22445 33.7548 2.23545 33.8831 2.25708 33.998C2.28634 34.1531 2.20499 34.3073 2.05929 34.3689L1.54001 34.5885ZM9.097 33.4892L8.81442 33.0133C8.72095 32.8558 8.77132 32.6527 8.92817 32.5578C9.29816 32.3342 9.67951 32.0943 10.0675 31.8409C10.2212 31.7406 10.4275 31.7832 10.5293 31.9358L10.8364 32.3963C10.9397 32.5511 10.896 32.7599 10.7401 32.8618C10.3384 33.1241 9.94308 33.3728 9.55925 33.6047C9.39963 33.7011 9.19211 33.6494 9.097 33.4892ZM12.3897 31.7344C12.2382 31.8424 12.0276 31.8073 11.9204 31.6555L12.3897 31.7344ZM2.41917 31.348L1.90169 31.1494C1.72627 31.082 1.63984 30.8842 1.71146 30.7109C1.88058 30.3015 2.08024 29.8685 2.30789 29.4174C2.39201 29.2507 2.5969 29.1841 2.76281 29.2705L3.2544 29.5263C3.41665 29.6108 3.48063 29.8098 3.39839 29.9729C3.18818 30.3897 3.00423 30.7882 2.84872 31.1635C2.7792 31.3315 2.58905 31.4133 2.41917 31.348ZM3.87965 28.3974L3.40071 28.1188C3.23966 28.0252 3.18593 27.8187 3.28135 27.659C3.28441 27.6539 3.28748 27.6487 3.29048 27.6437C3.38596 27.484 3.59401 27.4325 3.75303 27.5294L4.22629 27.8175C4.38314 27.913 4.43336 28.1169 4.33914 28.2743C4.33802 28.2763 4.33682 28.2781 4.3357 28.2801C4.24163 28.4375 4.03838 28.4896 3.87965 28.3974ZM30.8244 12.7529L30.3703 12.4358C30.2196 12.3306 30.1819 12.1237 30.2863 11.9727C30.5488 11.5932 30.8001 11.2183 31.0371 10.8527C31.1368 10.6988 31.3422 10.6546 31.4973 10.7528L31.9653 11.0493C32.1226 11.1489 32.1682 11.3572 32.0669 11.5133C31.8224 11.8905 31.5634 12.2771 31.2929 12.6681C31.1872 12.8211 30.977 12.8595 30.8244 12.7529ZM32.6511 9.92815L32.1726 9.64877C32.0144 9.55642 31.96 9.35386 32.0508 9.19506C32.282 8.79085 32.4934 8.39888 32.6825 8.02401C32.7647 7.8611 32.9623 7.79465 33.1269 7.87401L33.6261 8.11472C33.7947 8.19602 33.8642 8.3988 33.7801 8.56574C33.5798 8.96309 33.3563 9.37775 33.1122 9.80444C33.0194 9.96623 32.8123 10.0222 32.6511 9.92815ZM34.1577 6.90111L33.6412 6.70034C33.4715 6.63442 33.3869 6.44538 33.4482 6.27441C33.6053 5.83682 33.7176 5.43686 33.784 5.07931C33.8161 4.90684 33.9769 4.7897 34.1516 4.81001L34.7033 4.87437C34.8948 4.89669 35.0288 5.07505 34.9947 5.26432C34.916 5.70168 34.7822 6.18324 34.595 6.70296C34.5312 6.87975 34.3331 6.96927 34.1577 6.90111ZM29.5954 3.75975L29.3659 3.25602C29.2885 3.08594 29.3658 2.88473 29.5378 2.81074C30.0209 2.60304 30.4771 2.43408 30.9005 2.30581C31.083 2.25056 31.2749 2.35658 31.3233 2.54069L31.464 3.07609C31.5094 3.24907 31.4109 3.42751 31.2394 3.47978C30.8677 3.59304 30.464 3.74303 30.0333 3.92789C29.8657 3.99979 29.6708 3.92543 29.5954 3.75975ZM34.0294 3.67419C33.8928 3.72661 33.735 3.68681 33.647 3.57019C33.6267 3.54324 33.6048 3.51808 33.5812 3.49456C33.4001 3.31396 33.1009 3.22212 32.6918 3.22153H32.6803V2V2.6108L32.681 2.35038C32.6815 2.15373 32.8517 1.99798 33.0479 2.01792C33.6295 2.07705 34.0978 2.28252 34.447 2.63073C34.5534 2.73683 34.647 2.85524 34.7273 2.98478C34.837 3.16187 34.7553 3.39548 34.5606 3.47022L34.0294 3.67419Z" fill="url(#paint41_linear_1640_15612)"/>
  <path d="M13 8C13.5523 8 14 7.55228 14 7C14 6.44772 13.5523 6 13 6C12.4477 6 12 6.44772 12 7C12 7.55228 12.4477 8 13 8Z" fill="url(#paint42_linear_1640_15612)"/>
  <path d="M8 16C8.55228 16 9 15.5523 9 15C9 14.4477 8.55228 14 8 14C7.44772 14 7 14.4477 7 15C7 15.5523 7.44772 16 8 16Z" fill="url(#paint43_linear_1640_15612)"/>
  <path d="M36 18C36.5523 18 37 17.5523 37 17C37 16.4477 36.5523 16 36 16C35.4477 16 35 16.4477 35 17C35 17.5523 35.4477 18 36 18Z" fill="url(#paint44_linear_1640_15612)"/>
  <defs>
    <linearGradient id="paint0_linear_1640_15612" x1="12.2834" y1="12.0256" x2="33.4855" y2="33.8334" gradientUnits="userSpaceOnUse">
      <stop stop-color="#00AEFC"/>
      <stop offset="1" stop-color="#3F3CEE"/>
    </linearGradient>
    <linearGradient id="paint1_linear_1640_15612" x1="23.7522" y1="39.7743" x2="17.6215" y2="-5.64914" gradientUnits="userSpaceOnUse">
      <stop stop-color="#00AEFC" stop-opacity="0"/>
      <stop offset="1" stop-color="#18CFFC"/>
    </linearGradient>
    <linearGradient id="paint2_linear_1640_15612" x1="15.4508" y1="12.8694" x2="43.3884" y2="31.4639" gradientUnits="userSpaceOnUse">
      <stop stop-color="#E5F3FF"/>
      <stop offset="1" stop-color="#B3CCFF"/>
    </linearGradient>
    <linearGradient id="paint3_linear_1640_15612" x1="30.7568" y1="22.18" x2="43.55" y2="24.5025" gradientUnits="userSpaceOnUse">
      <stop stop-color="#E5F3FF"/>
      <stop offset="1" stop-color="#B3CCFF"/>
    </linearGradient>
    <linearGradient id="paint4_linear_1640_15612" x1="26.9794" y1="16.5066" x2="40.1706" y2="-9.26519" gradientUnits="userSpaceOnUse">
      <stop stop-color="#3F3CEE" stop-opacity="0"/>
      <stop offset="1" stop-color="#2F43BC"/>
    </linearGradient>
    <linearGradient id="paint5_linear_1640_15612" x1="29.1288" y1="30.5958" x2="20.2459" y2="21.6386" gradientUnits="userSpaceOnUse">
      <stop stop-color="#3F3CEE" stop-opacity="0"/>
      <stop offset="1" stop-color="#2F43BC"/>
    </linearGradient>
    <linearGradient id="paint6_linear_1640_15612" x1="16.0107" y1="15.4622" x2="16.0107" y2="17.2936" gradientUnits="userSpaceOnUse">
      <stop stop-color="#F9F7FC"/>
      <stop offset="1" stop-color="#F0DDFC"/>
    </linearGradient>
    <linearGradient id="paint7_linear_1640_15612" x1="16.0129" y1="16.5431" x2="16.0129" y2="15.0099" gradientUnits="userSpaceOnUse">
      <stop stop-color="#E9EDF5" stop-opacity="0"/>
      <stop offset="1" stop-color="white"/>
    </linearGradient>
    <linearGradient id="paint8_linear_1640_15612" x1="15.7643" y1="16.4582" x2="18.3846" y2="15.4212" gradientUnits="userSpaceOnUse">
      <stop stop-color="#F0DDFC" stop-opacity="0"/>
      <stop offset="0.2889" stop-color="#C8B7E0" stop-opacity="0.289"/>
      <stop offset="0.5915" stop-color="#A595C8" stop-opacity="0.592"/>
      <stop offset="0.8395" stop-color="#8F81B8" stop-opacity="0.84"/>
      <stop offset="1" stop-color="#8779B3"/>
    </linearGradient>
    <linearGradient id="paint9_linear_1640_15612" x1="16.1012" y1="15.4856" x2="15.9374" y2="16.4015" gradientUnits="userSpaceOnUse">
      <stop stop-color="#F0DDFC" stop-opacity="0"/>
      <stop offset="0.2889" stop-color="#C8B7E0" stop-opacity="0.289"/>
      <stop offset="0.5915" stop-color="#A595C8" stop-opacity="0.592"/>
      <stop offset="0.8395" stop-color="#8F81B8" stop-opacity="0.84"/>
      <stop offset="1" stop-color="#8779B3"/>
    </linearGradient>
    <linearGradient id="paint10_linear_1640_15612" x1="19.0105" y1="15.4622" x2="19.0104" y2="17.2936" gradientUnits="userSpaceOnUse">
      <stop stop-color="#F9F7FC"/>
      <stop offset="1" stop-color="#F0DDFC"/>
    </linearGradient>
    <linearGradient id="paint11_linear_1640_15612" x1="19.0125" y1="16.543" x2="19.0125" y2="15.0098" gradientUnits="userSpaceOnUse">
      <stop stop-color="#E9EDF5" stop-opacity="0"/>
      <stop offset="1" stop-color="white"/>
    </linearGradient>
    <linearGradient id="paint12_linear_1640_15612" x1="18.764" y1="16.4581" x2="21.3843" y2="15.4211" gradientUnits="userSpaceOnUse">
      <stop stop-color="#F0DDFC" stop-opacity="0"/>
      <stop offset="0.2889" stop-color="#C8B7E0" stop-opacity="0.289"/>
      <stop offset="0.5915" stop-color="#A595C8" stop-opacity="0.592"/>
      <stop offset="0.8395" stop-color="#8F81B8" stop-opacity="0.84"/>
      <stop offset="1" stop-color="#8779B3"/>
    </linearGradient>
    <linearGradient id="paint13_linear_1640_15612" x1="19.1009" y1="15.4855" x2="18.9371" y2="16.4014" gradientUnits="userSpaceOnUse">
      <stop stop-color="#F0DDFC" stop-opacity="0"/>
      <stop offset="0.2889" stop-color="#C8B7E0" stop-opacity="0.289"/>
      <stop offset="0.5915" stop-color="#A595C8" stop-opacity="0.592"/>
      <stop offset="0.8395" stop-color="#8F81B8" stop-opacity="0.84"/>
      <stop offset="1" stop-color="#8779B3"/>
    </linearGradient>
    <linearGradient id="paint14_linear_1640_15612" x1="27.54" y1="26.9915" x2="25.7087" y2="26.9915" gradientUnits="userSpaceOnUse">
      <stop stop-color="#F9F7FC"/>
      <stop offset="1" stop-color="#F0DDFC"/>
    </linearGradient>
    <linearGradient id="paint15_linear_1640_15612" x1="26.4597" y1="26.9898" x2="27.9929" y2="26.9898" gradientUnits="userSpaceOnUse">
      <stop stop-color="#E9EDF5" stop-opacity="0"/>
      <stop offset="1" stop-color="white"/>
    </linearGradient>
    <linearGradient id="paint16_linear_1640_15612" x1="26.5436" y1="27.238" x2="27.5806" y2="24.6177" gradientUnits="userSpaceOnUse">
      <stop stop-color="#F0DDFC" stop-opacity="0"/>
      <stop offset="0.2889" stop-color="#C8B7E0" stop-opacity="0.289"/>
      <stop offset="0.5915" stop-color="#A595C8" stop-opacity="0.592"/>
      <stop offset="0.8395" stop-color="#8F81B8" stop-opacity="0.84"/>
      <stop offset="1" stop-color="#8779B3"/>
    </linearGradient>
    <linearGradient id="paint17_linear_1640_15612" x1="27.5168" y1="26.9011" x2="26.6009" y2="27.0649" gradientUnits="userSpaceOnUse">
      <stop stop-color="#F0DDFC" stop-opacity="0"/>
      <stop offset="0.2889" stop-color="#C8B7E0" stop-opacity="0.289"/>
      <stop offset="0.5915" stop-color="#A595C8" stop-opacity="0.592"/>
      <stop offset="0.8395" stop-color="#8F81B8" stop-opacity="0.84"/>
      <stop offset="1" stop-color="#8779B3"/>
    </linearGradient>
    <linearGradient id="paint18_linear_1640_15612" x1="27.5401" y1="23.9918" x2="25.7087" y2="23.9918" gradientUnits="userSpaceOnUse">
      <stop stop-color="#F9F7FC"/>
      <stop offset="1" stop-color="#F0DDFC"/>
    </linearGradient>
    <linearGradient id="paint19_linear_1640_15612" x1="26.4597" y1="23.9902" x2="27.9929" y2="23.9902" gradientUnits="userSpaceOnUse">
      <stop stop-color="#E9EDF5" stop-opacity="0"/>
      <stop offset="1" stop-color="white"/>
    </linearGradient>
    <linearGradient id="paint20_linear_1640_15612" x1="26.5436" y1="24.2383" x2="27.5806" y2="21.618" gradientUnits="userSpaceOnUse">
      <stop stop-color="#F0DDFC" stop-opacity="0"/>
      <stop offset="0.2889" stop-color="#C8B7E0" stop-opacity="0.289"/>
      <stop offset="0.5915" stop-color="#A595C8" stop-opacity="0.592"/>
      <stop offset="0.8395" stop-color="#8F81B8" stop-opacity="0.84"/>
      <stop offset="1" stop-color="#8779B3"/>
    </linearGradient>
    <linearGradient id="paint21_linear_1640_15612" x1="27.5168" y1="23.9014" x2="26.6008" y2="24.0652" gradientUnits="userSpaceOnUse">
      <stop stop-color="#F0DDFC" stop-opacity="0"/>
      <stop offset="0.2889" stop-color="#C8B7E0" stop-opacity="0.289"/>
      <stop offset="0.5915" stop-color="#A595C8" stop-opacity="0.592"/>
      <stop offset="0.8395" stop-color="#8F81B8" stop-opacity="0.84"/>
      <stop offset="1" stop-color="#8779B3"/>
    </linearGradient>
    <linearGradient id="paint22_linear_1640_15612" x1="12.0332" y1="27.6509" x2="11.6938" y2="29.4445" gradientUnits="userSpaceOnUse">
      <stop stop-color="#FFDA45"/>
      <stop offset="0.3043" stop-color="#FFCE3E"/>
      <stop offset="0.8558" stop-color="#FFAE2B"/>
      <stop offset="1" stop-color="#FFA425"/>
    </linearGradient>
    <linearGradient id="paint23_linear_1640_15612" x1="11.7324" y1="28.6716" x2="13.9385" y2="26.23" gradientUnits="userSpaceOnUse">
      <stop stop-color="#FFDA45" stop-opacity="0"/>
      <stop offset="1" stop-color="#B53759"/>
    </linearGradient>
    <linearGradient id="paint24_linear_1640_15612" x1="15.353" y1="30.97" x2="13.5595" y2="31.3093" gradientUnits="userSpaceOnUse">
      <stop stop-color="#FFDA45"/>
      <stop offset="0.3043" stop-color="#FFCE3E"/>
      <stop offset="0.8558" stop-color="#FFAE2B"/>
      <stop offset="1" stop-color="#FFA425"/>
    </linearGradient>
    <linearGradient id="paint25_linear_1640_15612" x1="14.3316" y1="31.2711" x2="16.7732" y2="29.0649" gradientUnits="userSpaceOnUse">
      <stop stop-color="#FFDA45" stop-opacity="0"/>
      <stop offset="1" stop-color="#B53759"/>
    </linearGradient>
    <linearGradient id="paint26_linear_1640_15612" x1="18.3952" y1="16.8807" x2="16.1651" y2="21.0649" gradientUnits="userSpaceOnUse">
      <stop stop-color="#FFDA45"/>
      <stop offset="0.3043" stop-color="#FFCE3E"/>
      <stop offset="0.8558" stop-color="#FFAE2B"/>
      <stop offset="1" stop-color="#FFA425"/>
    </linearGradient>
    <linearGradient id="paint27_linear_1640_15612" x1="16.3412" y1="19.486" x2="20.858" y2="11.776" gradientUnits="userSpaceOnUse">
      <stop stop-color="#FFDA45" stop-opacity="0"/>
      <stop offset="1" stop-color="#B53759"/>
    </linearGradient>
    <linearGradient id="paint28_linear_1640_15612" x1="14.9903" y1="18.1227" x2="16.9097" y2="21.1973" gradientUnits="userSpaceOnUse">
      <stop stop-color="#F0DDFC" stop-opacity="0"/>
      <stop offset="0.2889" stop-color="#C8B7E0" stop-opacity="0.289"/>
      <stop offset="0.5915" stop-color="#A595C8" stop-opacity="0.592"/>
      <stop offset="0.8395" stop-color="#8F81B8" stop-opacity="0.84"/>
      <stop offset="1" stop-color="#8779B3"/>
    </linearGradient>
    <linearGradient id="paint29_linear_1640_15612" x1="16.3951" y1="18.9127" x2="15.4466" y2="20.8384" gradientUnits="userSpaceOnUse">
      <stop stop-color="#FFDA45" stop-opacity="0"/>
      <stop offset="1" stop-color="#B53759"/>
    </linearGradient>
    <linearGradient id="paint30_linear_1640_15612" x1="26.1215" y1="24.6073" x2="21.9372" y2="26.8375" gradientUnits="userSpaceOnUse">
      <stop stop-color="#FFDA45"/>
      <stop offset="0.3043" stop-color="#FFCE3E"/>
      <stop offset="0.8558" stop-color="#FFAE2B"/>
      <stop offset="1" stop-color="#FFA425"/>
    </linearGradient>
    <linearGradient id="paint31_linear_1640_15612" x1="23.9847" y1="26.3012" x2="31.6947" y2="21.7844" gradientUnits="userSpaceOnUse">
      <stop stop-color="#FFDA45" stop-opacity="0"/>
      <stop offset="1" stop-color="#B53759"/>
    </linearGradient>
    <linearGradient id="paint32_linear_1640_15612" x1="25.1243" y1="28.2618" x2="22.0498" y2="26.3424" gradientUnits="userSpaceOnUse">
      <stop stop-color="#FFDA45" stop-opacity="0"/>
      <stop offset="1" stop-color="#B53759"/>
    </linearGradient>
    <linearGradient id="paint33_linear_1640_15612" x1="24.0895" y1="26.6074" x2="22.1638" y2="27.5559" gradientUnits="userSpaceOnUse">
      <stop stop-color="#FFDA45" stop-opacity="0"/>
      <stop offset="1" stop-color="#B53759"/>
    </linearGradient>
    <linearGradient id="paint34_linear_1640_15612" x1="19.6715" y1="21.8978" x2="21.8864" y2="24.1128" gradientUnits="userSpaceOnUse">
      <stop stop-color="#E5F3FF"/>
      <stop offset="1" stop-color="#B3CCFF"/>
    </linearGradient>
    <linearGradient id="paint35_linear_1640_15612" x1="21.7311" y1="22.8197" x2="18.578" y2="20.0043" gradientUnits="userSpaceOnUse">
      <stop stop-color="#E5F3FF" stop-opacity="0"/>
      <stop offset="1" stop-color="white"/>
    </linearGradient>
    <linearGradient id="paint36_linear_1640_15612" x1="20.1735" y1="25.3448" x2="25.2233" y2="-9.48712" gradientUnits="userSpaceOnUse">
      <stop stop-color="#B3CCFF" stop-opacity="0"/>
      <stop offset="1" stop-color="#9FB0CB"/>
    </linearGradient>
    <linearGradient id="paint37_linear_1640_15612" x1="25.9867" y1="15.3961" x2="27.5343" y2="17.8279" gradientUnits="userSpaceOnUse">
      <stop stop-color="#8B788A"/>
      <stop offset="1" stop-color="#6E566E"/>
    </linearGradient>
    <linearGradient id="paint38_linear_1640_15612" x1="26.5718" y1="16.482" x2="26.1415" y2="14.9095" gradientUnits="userSpaceOnUse">
      <stop stop-color="#8B788A" stop-opacity="0"/>
      <stop offset="1" stop-color="#9E8C92"/>
    </linearGradient>
    <linearGradient id="paint39_linear_1640_15612" x1="26.9238" y1="16.6794" x2="28.1874" y2="13.6089" gradientUnits="userSpaceOnUse">
      <stop stop-color="#555A66" stop-opacity="0"/>
      <stop offset="1" stop-color="#555A66"/>
    </linearGradient>
    <linearGradient id="paint40_linear_1640_15612" x1="14.4909" y1="28.4004" x2="14.7339" y2="28.6434" gradientUnits="userSpaceOnUse">
      <stop stop-color="#E5F3FF"/>
      <stop offset="1" stop-color="#B3CCFF"/>
    </linearGradient>
    <linearGradient id="paint41_linear_1640_15612" x1="1" y1="19" x2="34.9999" y2="19" gradientUnits="userSpaceOnUse">
      <stop stop-color="#FF7044"/>
      <stop offset="1" stop-color="#F92814"/>
    </linearGradient>
    <linearGradient id="paint42_linear_1640_15612" x1="12.9225" y1="6.92257" x2="14.024" y2="8.02397" gradientUnits="userSpaceOnUse">
      <stop stop-color="#FF7044"/>
      <stop offset="1" stop-color="#F92814"/>
    </linearGradient>
    <linearGradient id="paint43_linear_1640_15612" x1="7.577" y1="14.577" x2="8.77823" y2="15.7783" gradientUnits="userSpaceOnUse">
      <stop stop-color="#92F37F"/>
      <stop offset="1" stop-color="#4AB272"/>
    </linearGradient>
    <linearGradient id="paint44_linear_1640_15612" x1="35.3828" y1="16.3828" x2="37.1062" y2="18.1062" gradientUnits="userSpaceOnUse">
      <stop stop-color="#92F37F"/>
      <stop offset="1" stop-color="#4AB272"/>
    </linearGradient>
  </defs>
</svg>