<svg xmlns="http://www.w3.org/2000/svg" width="24" height="24" viewBox="0 0 24 24" fill="none">
  <path d="M21.6001 6.64001C21.6001 6.64001 20.8506 7.85201 19.6372 8.6719C19.887 14.2329 15.8186 20.3998 8.43128 20.3998C7.29943 20.3998 6.26147 20.2718 5.31741 20.0158L5.3174 20.0158C4.90162 19.9031 4.65596 19.4746 4.76871 19.0589C4.84093 18.7925 5.0485 18.5842 5.31457 18.5109C6.27916 18.2455 7.24669 17.7463 8.21716 17.0133C6.66439 16.9199 5.575 16.3342 4.949 15.2563L4.94904 15.2563C4.78264 14.9697 4.88002 14.6026 5.16655 14.4362C5.24895 14.3883 5.34157 14.3608 5.43673 14.3558C5.72217 14.341 6.0185 14.2881 6.32571 14.1972C4.51272 13.7493 3.47444 12.7909 3.21087 11.3219L3.21078 11.3219C3.15225 10.9957 3.36925 10.6838 3.69546 10.6253C3.78676 10.6089 3.88062 10.6139 3.96966 10.6399C4.27818 10.73 4.59959 10.7751 4.93389 10.7751C3.25209 9.47517 2.69914 8.02379 3.27504 6.42095L3.27496 6.42092C3.38703 6.10902 3.73072 5.94703 4.04261 6.05909C4.13997 6.09407 4.22663 6.15363 4.29418 6.23198C6.08403 8.30789 8.60507 9.44202 11.8573 9.63437C11.0722 5.32107 16.0328 3.32483 18.5666 6.03401C19.887 5.82013 21.1004 5.07154 21.1004 5.07154C21.1004 5.07154 20.6722 6.53307 19.3517 7.24601C20.4224 7.17472 21.6001 6.64001 21.6001 6.64001Z" fill="#00FFFF"/>
</svg>