<svg xmlns="http://www.w3.org/2000/svg" width="24" height="24" viewBox="0 0 24 24" fill="none">
<path d="M11.9999 4.7998C17.9999 4.7998 19.8359 4.8748 20.6639 5.7373C21.2759 6.3748 21.5999 8.29199 21.5999 11.9998C21.5999 15.7076 21.2759 17.6248 20.6639 18.2623C19.8359 19.1248 17.994 19.1998 11.9999 19.1998C6.00584 19.1998 4.1639 19.1248 3.3359 18.2623C2.7239 17.6248 2.3999 15.7076 2.3999 11.9998C2.3999 8.29199 2.7239 6.3748 3.3359 5.7373C4.1639 4.8748 5.9999 4.7998 11.9999 4.7998ZM10.1999 8.9998V14.9998C10.1999 15.1655 10.3342 15.2998 10.4999 15.2998C10.5648 15.2998 10.628 15.2788 10.6799 15.2398L14.6799 12.2398C14.8125 12.1404 14.8393 11.9524 14.7399 11.8198C14.7228 11.7971 14.7026 11.7769 14.6799 11.7598L10.6799 8.7598C10.5474 8.66039 10.3593 8.68726 10.2599 8.8198C10.221 8.87173 10.1999 8.93489 10.1999 8.9998Z" fill="#00FFFF"/>
</svg>