<svg xmlns="http://www.w3.org/2000/svg" width="108" height="121" viewBox="0 0 108 121" fill="none">
  <g clip-path="url(#clip0_1640_15822)">
    <path d="M79.8222 13.2402H28.1853C12.6231 13.2402 0.00750732 25.8286 0.00750732 41.3573V92.8829C0.00750732 108.412 12.6231 121 28.1853 121H79.8222C95.3844 121 108 108.412 108 92.8829V41.3573C108 25.8286 95.3844 13.2402 79.8222 13.2402Z" fill="#540B3B"/>
    <path d="M108 37.0877V88.619C108 93.8078 106.597 98.6397 104.152 102.812C104.126 102.862 104.101 102.889 104.075 102.939C104.049 102.99 103.998 103.04 103.948 103.117C103.948 103.143 103.922 103.167 103.922 103.193C103.922 103.219 103.895 103.244 103.871 103.294C103.386 104.032 102.903 104.744 102.394 105.432C101.476 106.652 100.15 108.178 98.4426 109.705C93.4729 114.079 86.9715 116.725 79.8353 116.725H28.1909C18.5811 116.725 10.0929 111.917 5.02025 104.593C4.99404 104.567 4.99404 104.542 4.96969 104.516C1.83508 100.015 0 94.5197 0 88.619V37.0877C0 21.5736 12.6171 8.9837 28.1909 8.9837H79.8334C95.3829 8.9837 108 21.5718 108 37.0877Z" fill="#B02C83"/>
    <g style="mix-blend-mode:soft-light" opacity="0.3">
      <path d="M2.72266 100.633C3.28254 76.1206 37.6509 107.607 60.2299 107.607C82.8089 107.607 93.3549 82.7874 102.289 86.4011C111.223 90.0147 101.806 110.256 85.627 114.593C69.4484 118.93 29.8837 116.951 19.7009 115.434C9.51806 113.917 2.72266 100.633 2.72266 100.633Z" fill="white"/>
    </g>
    <g style="mix-blend-mode:soft-light">
      <path d="M104.075 102.939C104.049 103.016 103.998 103.092 103.922 103.193C103.922 103.219 103.895 103.244 103.871 103.294C103.59 103.752 103.107 104.516 102.394 105.432C101.476 106.652 100.15 108.178 98.4426 109.705C93.4729 114.079 86.9715 116.725 79.8353 116.725H28.1909C18.5811 116.725 10.0929 111.917 5.02023 104.593C4.99402 104.567 4.99402 104.542 4.96967 104.516C4.76557 104.109 4.63823 103.855 4.61389 103.752C5.37788 104.363 21.0285 116.521 58.0915 116.521C92.5535 116.521 102.392 105.254 103.948 103.117C103.998 103.04 104.049 102.99 104.075 102.939Z" fill="#D877C3"/>
    </g>
    <path d="M25.2267 103.814C25.7435 98.806 14.0889 29.5988 16.1974 24.6137C18.3058 19.6285 34.844 13.7372 38.5816 16.9099C42.3191 20.0826 30.9791 99.6935 33.9152 105.731C36.8495 111.768 22.8486 126.811 25.2248 103.815L25.2267 103.814Z" fill="url(#paint0_linear_1640_15822)"/>
    <path d="M16.1992 24.6137C15.8659 33.9263 34.4789 26.2468 37.4281 19.1895C40.3773 12.1303 16.3771 19.6547 16.1992 24.6137Z" fill="#FF7A00"/>
    <g style="mix-blend-mode:multiply" opacity="0.8">
      <path d="M27.646 116.101C23.9253 115.905 32.0914 107.153 33.7074 107.453C35.3215 107.756 32.6101 116.362 27.646 116.101Z" fill="#BE0E55"/>
    </g>
    <g style="mix-blend-mode:multiply" opacity="0.3">
      <path d="M19.3657 21.071C23.062 19.1558 26.7453 22.8703 27.6628 27.2445C28.5804 31.6186 23.944 91.5039 24.2005 93.4957C24.4571 95.4875 24.6668 97.1804 24.6668 97.1804C24.6668 97.1804 29.7151 29.8099 29.5691 26.3345C29.423 22.8591 25.3184 18.9073 19.3657 21.071Z" fill="#B10053"/>
    </g>
    <g style="mix-blend-mode:multiply" opacity="0.3">
      <path d="M25.9476 17.9076C25.9476 17.9076 34.1137 16.6408 35.2447 22.2594C36.3757 27.8779 29.9829 86.6309 24.9626 99.7421L25.2267 103.814C25.2267 103.814 34.2298 74.0092 35.7765 55.4756C37.3213 36.942 37.1472 23.9821 36.4787 21.5325C35.8121 19.0829 29.2601 16.4689 25.9457 17.9076H25.9476Z" fill="#B10053"/>
    </g>
    <g style="mix-blend-mode:multiply" opacity="0.3">
      <path d="M25.1574 111.777C25.1574 111.777 30.8106 92.7633 32.7936 86.0292C34.7784 79.2952 34.3515 84.3009 34.3515 84.3009L33.6081 94.9588C33.6081 94.9588 29.2227 102.537 28.3744 106.564C27.5261 110.591 25.1555 111.779 25.1555 111.779L25.1574 111.777Z" fill="#B10053"/>
    </g>
    <path d="M33.2879 19.1913C33.2879 19.1913 35.7428 20.0601 36.4787 21.5344C37.2165 23.0068 34.9788 32.8163 34.9788 32.8163C34.9788 32.8163 36.0012 24.7762 35.2447 22.2612C34.4863 19.7444 33.2898 19.1932 33.2898 19.1932L33.2879 19.1913Z" fill="#97001A"/>
    <g style="mix-blend-mode:soft-light" opacity="0.5">
      <path d="M20.506 28.9149C15.9539 27.848 23.7043 22.5733 24.4702 21.7324C25.236 20.8916 26.9082 27.0278 26.9363 27.5472C26.9644 28.0666 20.506 28.9149 20.506 28.9149Z" fill="white"/>
    </g>
    <g style="mix-blend-mode:soft-light" opacity="0.5">
      <path d="M29.8443 25.4601C29.4455 25.4974 27.8276 23.0067 29.5728 20.8916C31.3199 18.7765 35.4338 22.1117 34.8871 22.6106C34.3421 23.1095 31.0371 25.3442 29.8443 25.4601Z" fill="white"/>
    </g>
    <path d="M29.305 24.9313C29.305 24.9313 29.3013 26.9157 29.5728 27.2557C29.8443 27.5958 32.1869 25.049 32.1475 24.453C32.1082 23.8569 29.305 24.9313 29.305 24.9313Z" fill="#FFA457"/>
    <path d="M36.1642 20.6842C35.5912 19.6285 37.4281 19.1895 37.4281 19.1895C37.4281 19.1895 38.531 25.0472 36.1642 20.6842Z" fill="#FFA457"/>
    <path d="M97.1393 69.9676C96.7667 70.0106 96.4053 69.8294 95.9821 69.4912C94.4953 68.2711 92.4018 65.0273 87.4715 63.0019C84.4117 61.7295 80.2566 60.9353 74.4873 61.3688C56.8181 62.7048 37.2352 73.8578 37.2352 73.8578C32.2412 81.259 22.637 78.7888 20.0117 75.8515C19.3751 75.1415 18.6935 72.776 18.0456 69.5753C18.025 69.4594 17.9931 69.3529 17.9819 69.2576C17.9613 69.1194 17.9295 68.9717 17.8976 68.8223C15.9315 58.6651 14.2743 41.2134 14.9222 39.4738C15.8041 37.1307 16.7498 36.4842 16.7498 36.4842C16.7498 36.4842 19.4162 41.4245 26.9719 40.0885C34.5257 38.7638 38.8306 33.134 38.8306 33.134V30.0061L39.3512 29.3279C41.4559 26.5924 49.71 16.2223 58.7525 9.54426C75.3038 -2.6813 98.3302 -1.42941 102.133 4.59275C102.41 5.0169 102.57 5.4616 102.622 5.92872C102.633 6.02402 102.643 6.13986 102.643 6.25758C103.322 14.6976 99.6354 69.6818 97.1393 69.9676Z" fill="url(#paint1_linear_1640_15822)"/>
    <g style="mix-blend-mode:multiply" opacity="0.2">
      <path d="M39.868 30.0697C39.252 30.0697 38.8269 30.0062 38.8269 30.0062C38.8269 30.0062 39.2838 29.9856 39.868 30.0697Z" fill="#4F6A00"/>
    </g>
    <g style="mix-blend-mode:multiply" opacity="0.4">
      <path d="M87.9265 62.1013C87.9265 62.2171 87.7561 62.546 87.4696 63.0019C84.4099 61.7294 80.2548 60.9353 74.4855 61.3688C56.8163 62.7048 37.2334 73.8578 37.2334 73.8578C37.2334 73.8578 42.6319 31.7756 41.6956 30.8432C41.2181 30.3668 40.4841 30.1538 39.8793 30.0697C41.3024 30.0697 43.7685 29.7408 44.746 27.5453C46.1597 24.3745 72.8714 -0.848309 90.711 5.66153C101.549 9.61713 87.9265 61.4436 87.9265 62.1013Z" fill="#4F6A00"/>
    </g>
    <g style="mix-blend-mode:multiply" opacity="0.5">
      <path d="M97.1393 69.9677C96.2143 69.0446 95.7387 65.3413 96.5289 54.2218C97.9239 34.6082 98.0306 1.85727 102.131 4.59275L102.641 6.25758C103.321 14.6976 99.6354 69.6818 97.1393 69.9677Z" fill="#9A8B00"/>
    </g>
    <g style="mix-blend-mode:soft-light">
      <path d="M14.9203 39.4757C14.1788 44.9037 23.9291 46.8768 31.3574 44.5225C39.868 41.8244 41.9709 32.9397 41.7967 31.4132C41.6226 29.8885 38.8269 30.0081 38.8269 30.0081L38.664 32.766C38.664 32.766 34.9283 39.429 26.2585 40.7538C17.5887 42.0785 16.7498 36.4861 16.7498 36.4861L14.9203 39.4757Z" fill="#FFFE84"/>
    </g>
    <g style="mix-blend-mode:soft-light">
      <path d="M49.8205 17.3901C44.2423 26.1552 60.0146 11.4501 73.4687 6.81626C86.9228 2.1824 91.0836 3.52584 93.4992 4.59462C95.9147 5.6634 101.233 3.55387 101.233 3.55387C101.233 3.55387 95.5983 -2.67569 77.974 1.36026C60.3479 5.39621 49.8205 17.3901 49.8205 17.3901Z" fill="#FFFE84"/>
    </g>
    <g style="mix-blend-mode:multiply" opacity="0.2">
      <path d="M85.5147 4.43207C74.2383 3.78931 59.7412 13.1561 53.603 20.1256C47.463 27.0932 78.2661 34.825 83.0972 44.117C87.9283 53.4091 95.0983 28.4927 94.8342 15.8392C94.5721 3.18578 85.5147 4.43207 85.5147 4.43207Z" fill="#A6931F"/>
    </g>
    <g style="mix-blend-mode:multiply" opacity="0.3">
      <path d="M96.13 69.4277L95.9821 69.4912C94.4953 68.2711 92.4018 65.0274 87.4714 63.0019C84.4117 61.7295 80.2566 60.9354 74.4873 61.3689C56.8181 62.7049 37.2352 73.8579 37.2352 73.8579C37.2352 73.8579 42.0383 45.9089 41.6975 30.8433C41.6975 30.8433 40.4653 29.7091 38.8288 30.0062L39.3493 29.3279C39.3493 29.3279 43.8434 27.323 45.0437 28.1508C46.2552 28.9673 40.5908 52.9177 39.8699 64.4425C39.1471 75.9786 61.492 59.7676 77.165 58.5587C92.8269 57.361 96.1319 69.4258 96.1319 69.4258L96.13 69.4277Z" fill="#B07C6D"/>
    </g>
    <g style="mix-blend-mode:soft-light" opacity="0.5">
      <path d="M14.881 44.1731C16.1918 41.1555 23.8429 46.0827 26.1236 49.5786C28.4044 53.0746 28.0486 75.3863 25.3353 77.0418C22.622 78.6973 19.6541 77.0175 18.6541 72.2566C17.6542 67.4938 14.8829 44.175 14.8829 44.175L14.881 44.1731Z" fill="#FFD377"/>
    </g>
    <g style="mix-blend-mode:multiply" opacity="0.5">
      <path d="M16.7535 32.8145C16.7535 32.8145 15.9015 38.8142 26.5244 37.9977C37.1491 37.1793 38.8269 30.0062 38.8269 30.0062V33.134C38.8269 33.134 33.3029 40.6173 26.2566 40.7519C19.2103 40.8864 16.7479 36.4842 16.7479 36.4842L16.7535 32.8145Z" fill="#BE0E55"/>
    </g>
    <g style="mix-blend-mode:multiply" opacity="0.5">
      <path d="M41.6956 30.8451C41.735 30.7946 43.0551 32.9714 39.868 38.4424C38.4243 40.9219 40.6114 42.4503 39.1247 55.4177C37.7409 67.4825 35.9226 75.5208 35.477 75.9132C35.0294 76.3037 37.2334 73.8597 37.2334 73.8597C37.2334 73.8597 42.8323 43.2911 42.8323 37.7529C42.8323 32.2147 41.6956 30.8451 41.6956 30.8451Z" fill="#B07C6D"/>
    </g>
    <g style="mix-blend-mode:multiply" opacity="0.4">
      <path d="M41.6956 30.8451C41.6956 30.8451 47.8244 22.7377 54.015 18.4588C60.2056 14.18 52.605 45.1895 47.0099 58.4315C41.4148 71.6736 37.2334 73.8597 37.2334 73.8597C37.2334 73.8597 42.3641 46.4078 42.8323 39.2272C43.3023 32.0465 41.6956 30.8451 41.6956 30.8451Z" fill="#4F6A00"/>
    </g>
    <g style="mix-blend-mode:multiply" opacity="0.4">
      <path d="M38.0404 68.8223L37.2334 73.8579C32.2393 81.259 22.6351 78.7888 20.0099 75.8515C19.3732 75.1415 18.6916 72.776 18.0437 69.5753C18.5437 71.5054 20.4349 76.5616 26.9682 77.6659C35.0856 79.0224 38.0404 68.8223 38.0404 68.8223Z" fill="#4F6A00"/>
    </g>
    <g style="mix-blend-mode:multiply" opacity="0.8">
      <path d="M22.109 78.7346C22.109 78.7346 22.9479 81.3281 28.5317 82.3632C34.1156 83.3984 34.8309 79.2634 34.8309 79.2634L35.0444 76.2888C35.0444 76.2888 30.2826 79.7287 21.9292 77.3725L22.1071 78.7346H22.109Z" fill="#912774"/>
    </g>
    <path d="M90.5462 2.5841C88.4639 2.97275 94.0628 7.53935 96.13 7.00309C98.1973 6.46683 99.4276 3.52022 99.4276 3.52022C99.4276 3.52022 92.6939 2.18051 90.5462 2.58223V2.5841Z" fill="#F9FF53"/>
    <path d="M30.5897 44.743C25.8166 45.1653 34.2505 36.7346 37.2334 36.133C40.2163 35.5295 40.5459 36.133 40.5459 36.133C40.5459 36.133 39.3044 43.9713 30.5897 44.743Z" fill="#F9FF53"/>
  </g>
  <defs>
    <linearGradient id="paint0_linear_1640_15822" x1="15.9427" y1="66.0868" x2="39.3474" y2="66.0868" gradientUnits="userSpaceOnUse">
      <stop stop-color="#A71100"/>
      <stop offset="0.388" stop-color="#D83303"/>
      <stop offset="1" stop-color="#EC5C11"/>
    </linearGradient>
    <linearGradient id="paint1_linear_1640_15822" x1="14.778" y1="39.4439" x2="102.725" y2="39.4439" gradientUnits="userSpaceOnUse">
      <stop stop-color="#84A600"/>
      <stop offset="1" stop-color="#B5CE00"/>
    </linearGradient>
    <clipPath id="clip0_1640_15822">
      <rect width="108" height="121" fill="white"/>
    </clipPath>
  </defs>
</svg>