<svg xmlns="http://www.w3.org/2000/svg" width="116" height="121" viewBox="0 0 116 121" fill="none">
  <g clip-path="url(#clip0_1640_15672)">
    <path d="M85.7349 4.59778H30.2731C13.5582 4.59778 0.00805664 18.1958 0.00805664 34.9699V90.6279C0.00805664 107.402 13.5582 121 30.2731 121H85.7349C102.45 121 116 107.402 116 90.6279V34.9699C116 18.1958 102.45 4.59778 85.7349 4.59778Z" fill="#2B0038"/>
    <path d="M116 30.36V86.024C116 91.629 114.494 96.8484 111.867 101.355C111.839 101.41 111.813 101.438 111.784 101.493C111.756 101.547 111.702 101.602 111.648 101.684C111.648 101.713 111.62 101.739 111.62 101.767C111.62 101.795 111.591 101.822 111.565 101.876C111.044 102.673 110.525 103.442 109.978 104.183C108.993 105.501 107.569 107.15 105.735 108.799C100.397 113.524 93.4138 116.382 85.749 116.382H30.2791C19.9575 116.382 10.8406 111.189 5.39212 103.277C5.36396 103.249 5.36396 103.222 5.33782 103.194C1.97101 98.3299 0 92.396 0 86.022V30.36C0 13.5996 13.5517 0 30.2791 0H85.747C102.448 0 116 13.5996 116 30.36Z" fill="#46056D"/>
    <g style="mix-blend-mode:soft-light" opacity="0.2">
      <path d="M2.92432 99C3.52568 72.5213 40.4379 106.532 64.6914 106.532C88.9448 106.532 100.27 79.7227 109.866 83.6262C119.461 87.5297 109.347 109.394 91.9697 114.079C74.5927 118.764 32.0973 116.626 21.1602 114.987C10.2231 113.348 2.92432 99 2.92432 99Z" fill="white"/>
    </g>
    <g style="mix-blend-mode:soft-light">
      <path d="M111.784 101.491C111.756 101.573 111.702 101.656 111.62 101.765C111.62 101.793 111.591 101.82 111.565 101.874C111.264 102.369 110.745 103.194 109.978 104.181C108.993 105.499 107.569 107.148 105.735 108.797C100.397 113.522 93.4138 116.38 85.749 116.38H30.2792C19.9575 116.38 10.8406 111.187 5.39213 103.275C5.36397 103.247 5.36397 103.22 5.33782 103.192C5.1186 102.752 4.98183 102.478 4.95569 102.367C5.77627 103.027 22.5862 116.16 62.3946 116.16C99.4093 116.16 109.976 103.989 111.648 101.68C111.702 101.598 111.756 101.545 111.784 101.491Z" fill="#BF77D8"/>
    </g>
    <path d="M29.9231 20.1572C29.9231 20.1572 25.8725 21.4772 24.8307 24.3312C24.344 25.6613 23.3404 35.5492 20.4542 39.057C17.5681 42.5649 31.681 34.1747 31.681 34.1747L29.9231 20.1572Z" fill="url(#paint0_linear_1640_15672)"/>
    <path d="M1.95898 35.194C6.89254 32.5943 10.5369 39.045 17.8719 39.7474C25.1847 40.4457 26.122 21.1039 29.9232 20.1573C33.7385 19.2086 51.0613 42.0987 59.5085 44.5208L58.523 77.1474C58.523 77.1474 27.4031 76.8486 22.6968 75.0523C17.9503 73.2398 1.961 35.1919 1.961 35.1919L1.95898 35.194Z" fill="url(#paint1_linear_1640_15672)"/>
    <path d="M113.389 34.9255C113.389 34.9255 109.95 43.1624 105.787 52.1824C103.388 57.3938 100.747 62.8534 98.3917 67.1363C96.0245 71.4435 93.9428 74.5598 92.6617 75.0584C88.609 76.6044 65.0635 77.0364 58.523 77.1393H57.7446C57.1634 77.1534 56.8355 77.1534 56.8355 77.1534V77.1272L56.6706 71.5626L55.848 44.5228C56.4172 44.3532 57.0306 44.103 57.6782 43.7639C61.3045 41.8646 65.9927 37.4404 70.518 32.9213C77.0907 26.3617 83.3034 19.6042 85.4172 20.129C89.2184 21.0716 87.7724 40.8958 95.0691 40.2015C102.398 39.4951 109.697 32.7518 113.389 34.9255Z" fill="url(#paint2_linear_1640_15672)"/>
    <path d="M93.8865 40.1147C88.247 35.6198 90.4815 27.5908 89.4919 24.9508C88.1424 21.3541 85.4152 20.129 85.4152 20.129C85.4152 20.129 87 21.2754 88.247 30.1218C89.4919 38.9682 93.8865 40.1147 93.8865 40.1147Z" fill="url(#paint3_linear_1640_15672)"/>
    <g style="mix-blend-mode:multiply" opacity="0.5">
      <path d="M105.785 52.1824C103.386 57.3938 100.745 62.8534 98.3896 67.1364L58.6979 71.3527L56.6706 71.5626L35.3173 73.8272L13.5376 54.3703C11.2147 46.5795 25.6211 36.4978 45.0014 33.105C52.9438 31.7042 61.7208 31.4419 70.5179 32.9213C72.501 33.2483 74.472 33.6681 76.445 34.1787C91.827 38.1852 100.713 45.5844 105.785 52.1824Z" fill="#DE376D"/>
    </g>
    <path d="M113.663 35.4361C113.152 31.6658 101.847 46.7954 93.4863 48.5534C85.1879 50.2972 71.0992 17.0914 58.9715 12.8629C46.8216 17.0893 33.2417 50.2952 24.9554 48.5534C16.6068 46.7974 2.15809 31.9363 1.64724 35.7046C1.14443 39.4143 13.7328 66.9325 13.7328 66.9325C32.3387 71.0983 58.8166 72.4829 58.8166 72.4829C58.8166 72.4829 85.3026 71.0963 103.929 66.9325C103.929 66.9325 114.164 39.1519 113.661 35.4381L113.663 35.4361Z" fill="url(#paint4_linear_1640_15672)"/>
    <path d="M13.7327 66.9305L14.4065 83.5536C14.4065 83.5536 31.3692 90.4482 58.7703 90.4482C86.1714 90.4482 104.357 83.0611 104.357 83.0611L103.929 66.9305C103.929 66.9305 60.0756 75.1916 13.7327 66.9305Z" fill="url(#paint5_linear_1640_15672)"/>
    <path d="M12.0172 63.1198C12.0172 63.1198 9.38044 64.2703 9.51118 65.5297C9.64191 66.7811 13.8575 70.0125 13.8575 70.0125C13.8575 70.0125 57.3685 81.3334 103.987 69.084C103.987 69.084 107.426 65.5277 107.726 64.1128C108.03 62.6879 105.517 62.5345 105.517 62.5345C105.517 62.5345 87.1167 70.6382 57.6441 70.6382C28.1714 70.6382 12.0172 63.1178 12.0172 63.1178V63.1198Z" fill="url(#paint6_linear_1640_15672)"/>
    <path d="M93.8865 40.1147C97.38 41.4912 106.306 36.6936 108.174 37.1073C110.043 37.5211 96.0647 47.2798 91.9135 47.1143C87.7623 46.9488 83.8042 41.3418 83.8042 41.3418C83.8042 41.3418 87.7482 48.2607 92.1911 49.1003C100.286 50.6303 112.78 36.0517 113.383 34.9255C113.987 33.8013 112.016 33.884 106.877 35.5572C101.495 37.3112 99.2666 40.2075 93.8865 40.1147Z" fill="url(#paint7_linear_1640_15672)"/>
    <path d="M20.038 39.3033C16.1885 41.356 10.9572 37.5211 9.08881 37.9349C7.22037 38.3486 19.8831 47.7763 24.0343 47.6108C28.1855 47.4453 34.2292 41.693 34.2292 41.693C34.2292 41.693 29.5833 48.3738 25.1405 49.2134C17.0453 50.7433 2.56235 36.3182 1.95898 35.1939C1.35561 34.0697 3.43321 33.882 8.56991 35.5572C13.952 37.3112 14.6318 39.8361 20.038 39.3033Z" fill="url(#paint8_linear_1640_15672)"/>
    <path d="M40.804 32.5257C40.804 32.5257 54.8906 15.0266 60.1541 16.1851C65.4175 17.3437 73.933 27.7038 73.933 27.7038C73.933 27.7038 63.7481 11.884 59.0459 11.553C54.3436 11.222 40.804 32.5257 40.804 32.5257Z" fill="url(#paint9_linear_1640_15672)"/>
    <path d="M45.9265 67.9961C34.6475 63.0471 52.0527 42.5508 58.4002 39.8967C64.7477 37.2426 83.2812 61.3094 74.7797 65.8183C64.1684 71.4475 45.9265 67.9961 45.9265 67.9961Z" fill="url(#paint10_linear_1640_15672)"/>
    <path d="M44.4463 63.2954C43.5332 55.2079 52.1493 43.8204 59.5064 42.8273C66.8635 41.8343 77.1389 57.3413 75.8939 63.2954C74.649 69.2495 45.2045 70.0205 44.4463 63.2954Z" fill="url(#paint11_linear_1640_15672)"/>
    <g style="mix-blend-mode:soft-light">
      <path d="M50.0515 61.931C49.4562 58.8429 56.6262 49.7745 60.1901 48.9066C63.754 48.0387 69.9808 57.093 69.9808 60.8149C69.9808 64.5367 50.673 65.1563 50.0515 61.931Z" fill="white"/>
    </g>
    <path opacity="0.75" d="M45.0697 60.6897C45.9003 62.1772 48.9494 62.0541 50.0173 60.1912C51.0833 58.3283 59.6693 49.1528 59.9991 47.6633C60.3289 46.1738 59.5084 42.8253 59.5084 42.8253C59.5084 42.8253 47.6642 45.8044 45.0697 60.6897Z" fill="white"/>
    <g style="mix-blend-mode:multiply" opacity="0.8">
      <path d="M45.6731 65.2532C44.4121 64.0382 50.5423 62.6334 50.5423 62.6334C50.5423 62.6334 54.7197 64.4943 59.9971 64.2037C65.2726 63.915 68.6394 61.9734 69.5344 61.7453C70.4294 61.5172 74.476 63.8101 74.5806 64.5871C74.6852 65.3622 68.5972 68.0506 59.8785 68.0506C51.1598 68.0506 45.6731 65.2532 45.6731 65.2532Z" fill="#B82774"/>
    </g>
    <path d="M44.3799 67.0899C44.3799 67.0899 52.6199 68.7006 59.9971 68.4644C71.783 68.087 76.445 64.1593 76.445 64.1593C76.445 64.1593 75.4193 69.0417 59.9971 69.3121C46.9362 69.5402 44.3799 67.0899 44.3799 67.0899Z" fill="url(#paint12_linear_1640_15672)"/>
    <path d="M51.9663 47.5866C51.9663 47.5866 51.2966 51.5365 54.0982 52.2671C56.8999 52.9978 59.1846 48.4222 59.5889 46.9831C59.9932 45.544 59.5064 42.8273 59.5064 42.8273C59.5064 42.8273 54.0801 44.9527 51.9663 47.5866Z" fill="white"/>
    <path d="M69.7476 59.3616C69.5545 59.178 67.9556 62.1954 68.3518 62.2095C68.748 62.2237 70.9282 62.0763 71.2017 62.2035C71.4773 62.3306 70.4837 60.06 69.7476 59.3616Z" fill="white"/>
    <g style="mix-blend-mode:multiply" opacity="0.7">
      <path d="M13.8574 70.0125C13.8574 70.0125 61.8113 87.4167 103.987 69.084C103.987 69.084 66.7167 81.0851 13.8574 70.0125Z" fill="#DE376D"/>
    </g>
    <g style="mix-blend-mode:soft-light">
      <path d="M68.2895 70.4121C61.4654 73.7545 74.7637 73.264 83.8042 72.4809C92.8447 71.6978 98.5083 66.6196 98.6471 65.7618C98.7859 64.904 68.2915 70.4121 68.2915 70.4121H68.2895Z" fill="white"/>
    </g>
    <g style="mix-blend-mode:multiply" opacity="0.2">
      <path d="M21.2326 70.5998C15.5488 68.7066 19.5471 66.1635 33.3281 69.0437C47.1111 71.9239 30.9187 73.8251 21.2326 70.5998Z" fill="#E02774"/>
    </g>
    <g style="mix-blend-mode:soft-light" opacity="0.5">
      <path d="M37.7348 39.6949C33.1351 45.2453 27.3206 66.9305 37.4311 64.892C41.0111 64.1694 46.3187 41.3156 58.2433 37.3455C70.168 33.3754 80.1899 59.7653 83.8021 61.709C87.4143 63.6547 90.7369 54.6852 90.7369 52.3459C90.7369 50.0066 67.8369 16.9198 59.0438 18.0723C50.2507 19.2248 51.8959 22.6075 37.7348 39.6949Z" fill="white"/>
    </g>
    <g style="mix-blend-mode:multiply" opacity="0.2">
      <path d="M9.50714 44.765C9.50714 43.8951 20.4362 49.6554 23.7567 54.3703C27.0773 59.0831 29.6114 66.6984 29.7462 67.4048C29.881 68.1132 20.7198 66.5006 18.435 64.8899C16.1523 63.2793 9.50513 44.7629 9.50513 44.7629L9.50714 44.765Z" fill="#E02774"/>
    </g>
    <g style="mix-blend-mode:multiply" opacity="0.2">
      <path d="M19.5995 84.1753C16.5485 82.8532 18.6663 74.4932 19.1993 73.4962C19.7322 72.4991 43.2013 76.1543 46.8175 77.0222C50.4337 77.8901 50.9184 88.3351 50.5685 89.4916C50.2185 90.6481 26.7394 87.2694 19.5995 84.1753Z" fill="#E02774"/>
    </g>
    <g style="mix-blend-mode:soft-light">
      <path d="M69.9789 90.0345C66.1616 90.3716 72.6257 78.0758 73.931 77.4804C75.2362 76.887 93.0397 72.5314 94.7251 73.0541C96.4105 73.5769 97.211 85.3822 97.211 85.3822C97.211 85.3822 82.1549 88.9567 69.9769 90.0325L69.9789 90.0345Z" fill="white"/>
    </g>
    <path d="M61.1577 13.5371C58.5612 12.6591 62.6118 19.3398 66.6745 21.7336C70.7372 24.1273 65.144 14.8833 61.1577 13.5371Z" fill="white"/>
    <path d="M96.5816 48.6382C93.4984 48.9591 103.116 41.7152 106.302 40.1147C109.488 38.5141 104.985 47.7642 96.5816 48.6382Z" fill="white"/>
    <path d="M85.4152 67.7459C82.8489 68.7389 90.0551 69.6128 93.1243 68.862C96.1934 68.1112 96.6942 66.2402 97.2131 65.7295C97.732 65.2169 85.4152 67.7459 85.4152 67.7459Z" fill="white"/>
    <g style="mix-blend-mode:soft-light">
      <path d="M10.4041 64.8899C9.56741 66.0727 14.6599 68.975 16.2166 69.0437C17.7732 69.1103 20.3677 67.5521 20.8343 66.9668C21.301 66.3815 11.5445 63.2732 10.4041 64.8899Z" fill="white"/>
    </g>
    <g style="mix-blend-mode:soft-light">
      <path d="M15.2813 71.1589C14.1912 70.7249 14.1148 83.1297 15.581 83.3154C17.0452 83.5011 18.5395 75.0503 18.7326 73.3266C18.9257 71.6029 15.2813 71.1589 15.2813 71.1589Z" fill="white"/>
    </g>
    <g style="mix-blend-mode:soft-light">
      <path d="M3.70874 41.2631C3.79522 38.6736 14.7384 57.5129 15.5811 60.6776C16.4238 63.8404 12.8418 63.8343 12.0131 62.5365C11.1825 61.2387 3.65846 42.8152 3.71075 41.2651L3.70874 41.2631Z" fill="white"/>
    </g>
    <g style="mix-blend-mode:multiply" opacity="0.3">
      <path d="M100.393 63.3519C95.7187 64.1492 100.684 49.8068 107.75 42.6719C114.815 35.5371 104.751 61.9128 104.355 62.5345C103.959 63.1562 100.393 63.3519 100.393 63.3519Z" fill="#FF6F74"/>
    </g>
    <g style="mix-blend-mode:multiply" opacity="0.3">
      <path d="M97.2292 71.7099C95.8575 72.7514 97.1789 83.5334 97.9331 84.2459C98.6873 84.9584 102.901 82.9319 103.607 82.1791C104.313 81.4262 104.091 71.5807 103.607 70.5191C103.122 69.4574 97.2292 71.7099 97.2292 71.7099Z" fill="#FF6F74"/>
    </g>
    <g style="mix-blend-mode:multiply" opacity="0.7">
      <path d="M14.147 77.1494C14.147 77.1494 22.1577 91.8147 61.2903 89.7257C100.423 87.6367 104.057 77.4804 104.057 77.4804L104.357 83.0611C104.357 83.0611 61.5196 99.6479 14.4064 83.5536L14.147 77.1494Z" fill="#DE376D"/>
    </g>
    <path d="M3.70878 35.5431C2.51611 36.9842 10.1025 42.7567 11.3153 43.6266C12.528 44.4965 14.6077 44.6781 14.9717 44.6761C15.3357 44.6761 6.30528 35.7772 3.71079 35.5431H3.70878Z" fill="white"/>
    <path d="M62.7827 68.9468C62.298 67.7055 70.6708 67.7479 70.6708 67.7479C70.6708 67.7479 65.6889 69.8429 62.7827 68.9468Z" fill="white"/>
    <g style="mix-blend-mode:multiply" opacity="0.8">
      <path d="M42.24 63.0169C42.24 63.0169 49.589 43.893 59.5909 43.1866C69.5928 42.4802 76.9539 62.2096 76.9539 62.2096C76.9961 55.5369 67.3342 39.1499 60.1902 38.2477C53.0463 37.3455 41.8739 56.4714 42.24 63.0169Z" fill="#D12774"/>
    </g>
    <g style="mix-blend-mode:multiply" opacity="0.7">
      <path d="M12.0171 63.1198C12.0171 63.1198 52.98 78.8044 105.517 62.5365L108.14 55.0525C108.14 55.0525 91.2699 70.1699 58.7562 69.3626C26.2406 68.5573 9.94556 58.3485 9.94556 58.3485L12.0171 63.1178V63.1198Z" fill="#DE376D"/>
    </g>
  </g>
  <defs>
    <linearGradient id="paint0_linear_1640_15672" x1="25.8725" y1="39.9148" x2="25.8725" y2="20.1572" gradientUnits="userSpaceOnUse">
      <stop offset="0.05" stop-color="#F33C00"/>
      <stop offset="1" stop-color="#FF4F04"/>
    </linearGradient>
    <linearGradient id="paint1_linear_1640_15672" x1="30.7337" y1="77.1494" x2="30.7337" y2="20.129" gradientUnits="userSpaceOnUse">
      <stop offset="0.05" stop-color="#FF3F00"/>
      <stop offset="1" stop-color="#FF7C04"/>
    </linearGradient>
    <linearGradient id="paint2_linear_1640_15672" x1="84.6187" y1="77.1534" x2="84.6187" y2="20.1007" gradientUnits="userSpaceOnUse">
      <stop offset="0.05" stop-color="#FF3F00"/>
      <stop offset="1" stop-color="#FF7C04"/>
    </linearGradient>
    <linearGradient id="paint3_linear_1640_15672" x1="89.6508" y1="40.1147" x2="89.6508" y2="20.129" gradientUnits="userSpaceOnUse">
      <stop offset="0.05" stop-color="#F33C00"/>
      <stop offset="1" stop-color="#FF4F04"/>
    </linearGradient>
    <linearGradient id="paint4_linear_1640_15672" x1="1.63115" y1="42.6719" x2="113.681" y2="42.6719" gradientUnits="userSpaceOnUse">
      <stop stop-color="#FF9600"/>
      <stop offset="1" stop-color="#FFA900"/>
    </linearGradient>
    <linearGradient id="paint5_linear_1640_15672" x1="13.7327" y1="78.6894" x2="104.357" y2="78.6894" gradientUnits="userSpaceOnUse">
      <stop stop-color="#FF9600"/>
      <stop offset="1" stop-color="#FFA900"/>
    </linearGradient>
    <linearGradient id="paint6_linear_1640_15672" x1="9.50715" y1="68.6582" x2="107.752" y2="68.6582" gradientUnits="userSpaceOnUse">
      <stop stop-color="#FF9600"/>
      <stop offset="1" stop-color="#FFA900"/>
    </linearGradient>
    <linearGradient id="paint7_linear_1640_15672" x1="98.6471" y1="49.2114" x2="98.6471" y2="34.1726" gradientUnits="userSpaceOnUse">
      <stop stop-color="#FFDE00"/>
      <stop offset="1" stop-color="#FFE834"/>
    </linearGradient>
    <linearGradient id="paint8_linear_1640_15672" x1="18.0448" y1="49.3264" x2="18.0448" y2="34.324" gradientUnits="userSpaceOnUse">
      <stop stop-color="#FFDE00"/>
      <stop offset="1" stop-color="#FFE834"/>
    </linearGradient>
    <linearGradient id="paint9_linear_1640_15672" x1="57.3685" y1="32.5257" x2="57.3685" y2="11.549" gradientUnits="userSpaceOnUse">
      <stop stop-color="#FFDE00"/>
      <stop offset="1" stop-color="#FFE834"/>
    </linearGradient>
    <linearGradient id="paint10_linear_1640_15672" x1="59.5908" y1="69.0437" x2="59.5908" y2="39.6949" gradientUnits="userSpaceOnUse">
      <stop offset="0.05" stop-color="#FF4B00"/>
      <stop offset="1" stop-color="#FF7204"/>
    </linearGradient>
    <linearGradient id="paint11_linear_1640_15672" x1="60.1902" y1="68.0547" x2="60.1902" y2="42.7809" gradientUnits="userSpaceOnUse">
      <stop stop-color="#DE0086"/>
      <stop offset="1" stop-color="#FF003B"/>
    </linearGradient>
    <linearGradient id="paint12_linear_1640_15672" x1="44.3799" y1="66.7428" x2="76.447" y2="66.7428" gradientUnits="userSpaceOnUse">
      <stop stop-color="#FFDE00"/>
      <stop offset="1" stop-color="#FFE834"/>
    </linearGradient>
    <clipPath id="clip0_1640_15672">
      <rect width="116" height="121" fill="white"/>
    </clipPath>
  </defs>
</svg>