<svg xmlns="http://www.w3.org/2000/svg" width="24" height="24" viewBox="0 0 24 24" fill="none">
  <path d="M4 5.99988C4 4.89531 4.89543 3.99988 6 3.99988H8C9.10457 3.99988 10 4.89531 10 5.99988V7.99988C10 9.10445 9.10457 9.99988 8 9.99988H6C4.89543 9.99988 4 9.10445 4 7.99988V5.99988Z" stroke="#9CA3AF" stroke-width="2" stroke-linecap="round" stroke-linejoin="round"/>
  <path d="M14 5.99988C14 4.89531 14.8954 3.99988 16 3.99988H18C19.1046 3.99988 20 4.89531 20 5.99988V7.99988C20 9.10445 19.1046 9.99988 18 9.99988H16C14.8954 9.99988 14 9.10445 14 7.99988V5.99988Z" stroke="#9CA3AF" stroke-width="2" stroke-linecap="round" stroke-linejoin="round"/>
  <path d="M4 15.9999C4 14.8953 4.89543 13.9999 6 13.9999H8C9.10457 13.9999 10 14.8953 10 15.9999V17.9999C10 19.1044 9.10457 19.9999 8 19.9999H6C4.89543 19.9999 4 19.1044 4 17.9999V15.9999Z" stroke="#9CA3AF" stroke-width="2" stroke-linecap="round" stroke-linejoin="round"/>
  <path d="M14 15.9999C14 14.8953 14.8954 13.9999 16 13.9999H18C19.1046 13.9999 20 14.8953 20 15.9999V17.9999C20 19.1044 19.1046 19.9999 18 19.9999H16C14.8954 19.9999 14 19.1044 14 17.9999V15.9999Z" stroke="#9CA3AF" stroke-width="2" stroke-linecap="round" stroke-linejoin="round"/>
</svg>