<svg xmlns="http://www.w3.org/2000/svg" width="110" height="121" viewBox="0 0 110 121" fill="none">
  <g clip-path="url(#clip0_1640_15721)">
    <path d="M81.3003 10.6151H28.7072C12.8568 10.6151 0.00756836 23.5102 0.00756836 39.4172V92.1979C0.00756836 108.105 12.8568 121 28.7072 121H81.3003C97.1507 121 110 108.105 110 92.1979V39.4172C110 23.5102 97.1507 10.6151 81.3003 10.6151Z" fill="#095858"/>
    <path d="M110 35.0455V87.832C110 93.1472 108.572 98.0969 106.081 102.371C106.056 102.423 106.029 102.449 106.003 102.501C105.976 102.553 105.924 102.604 105.873 102.683C105.873 102.71 105.846 102.735 105.846 102.761C105.846 102.788 105.819 102.813 105.795 102.865C105.301 103.621 104.809 104.35 104.29 105.054C103.355 106.304 102.005 107.868 100.266 109.432C95.2039 113.912 88.5821 116.623 81.3137 116.623H28.713C18.9252 116.623 10.2798 111.698 5.11322 104.195C5.08652 104.168 5.08652 104.143 5.06172 104.116C1.86906 99.5056 0 93.8765 0 87.832V35.0455C0 19.1516 12.8508 6.25494 28.713 6.25494H81.3118C97.1492 6.25494 110 19.1516 110 35.0455Z" fill="#3FB6B6"/>
    <g style="mix-blend-mode:soft-light" opacity="0.3">
      <path d="M2.77307 100.139C3.34333 75.0292 38.3463 107.282 61.3453 107.282C84.3443 107.282 95.0837 81.8584 104.183 85.5601C113.284 89.2618 103.691 109.996 87.2127 114.439C70.7344 118.881 30.4371 116.854 20.0657 115.3C9.69432 113.746 2.77307 100.139 2.77307 100.139Z" fill="white"/>
    </g>
    <g style="mix-blend-mode:soft-light">
      <path d="M106.002 102.501C105.976 102.58 105.924 102.658 105.846 102.761C105.846 102.788 105.819 102.813 105.795 102.865C105.508 103.334 105.016 104.116 104.29 105.054C103.355 106.304 102.005 107.868 100.266 109.432C95.2038 113.912 88.582 116.623 81.3137 116.623H28.7129C18.9251 116.623 10.2798 111.698 5.11316 104.195C5.08646 104.168 5.08646 104.143 5.06166 104.116C4.85378 103.699 4.72409 103.439 4.69739 103.336C5.47553 103.961 21.416 116.414 59.1653 116.414C94.2655 116.414 104.288 104.873 105.871 102.683C105.922 102.604 105.974 102.553 106.001 102.501H106.002Z" fill="#02F0FF"/>
    </g>
    <path d="M90.2986 80.3062L88.9197 89.1604C88.9197 89.1604 88.9196 89.17 88.9101 89.1795L88.3494 92.8162C55.6389 105.129 25.3029 94.3569 25.3029 94.3569L24.5248 88.4867V88.4771L23.3423 79.6037C50.1442 89.8418 90.2986 80.3062 90.2986 80.3062Z" fill="url(#paint0_linear_1640_15721)"/>
    <path d="M23.7923 80.3081C16.8215 74.6771 87.3118 77.1251 90.2966 80.3081C92.0245 82.1494 73.7974 86.2434 55.6351 86.5918C42.4105 86.8463 29.2183 84.6912 23.7923 80.3081Z" fill="url(#paint1_linear_1640_15721)"/>
    <path d="M19.8292 23.06L27.4333 79.4793C27.4333 79.4793 51.5155 90.0925 85.0004 79.4793L90.5618 23.06H19.8292Z" fill="url(#paint2_linear_1640_15721)"/>
    <path d="M83.446 48.8398C82.6259 61.3976 80.5623 74.8091 77.2152 77.6112C71.9761 81.9867 38.7049 82.6374 35.0526 77.9768C33.2007 75.6111 31.5528 68.9101 30.2578 61.0742C27.7384 45.7544 26.617 26.1109 28.0932 26.0592C28.0932 26.0592 79.8357 22.8112 82.5668 25.3185C83.8827 26.5263 84.186 37.3175 83.446 48.8398Z" fill="url(#paint3_linear_1640_15721)"/>
    <path d="M94.4429 13.5742L93.8821 18.8607V18.8702C93.8821 18.8798 93.8821 18.8989 93.8726 18.92C93.8726 18.9793 93.8631 19.0674 93.844 19.1975L93.0163 27.0143C51.6013 36.7471 17.4051 27.0143 17.4051 27.0143L16.421 18.8817C16.421 18.8817 16.421 18.8721 16.4115 18.8721V18.8626L15.7706 13.5761H94.4448L94.4429 13.5742Z" fill="url(#paint4_linear_1640_15721)"/>
    <path d="M15.7688 13.5722C10.4 10.3108 79.5115 8.45418 93.0145 12.4487C100.491 14.6594 79.1548 17.762 56.8767 18.0663C38.9223 18.3113 20.3556 16.359 15.7688 13.5722Z" fill="url(#paint5_linear_1640_15721)"/>
    <path d="M37.5606 14.3531L35.4169 1.24408L73.8986 1.98097L73.0041 13.6009C73.0041 13.6009 51.302 17.5361 37.5606 14.3531Z" fill="url(#paint6_linear_1640_15721)"/>
    <path d="M35.7944 1.56948C30.6469 0.336856 70.229 -1.23838 73.601 1.56948C76.9748 4.37733 50.6477 5.12763 35.7944 1.56948Z" fill="url(#paint7_linear_1640_15721)"/>
    <g style="mix-blend-mode:soft-light">
      <path d="M64.9842 3.96392C64.1069 3.66725 56.7756 4.58598 56.1538 4.64722C55.5321 4.71039 56.2816 14.0871 56.4647 14.757C56.6478 15.4269 63.8646 14.6326 64.9212 14.3819C65.9778 14.1331 65.7471 4.2204 64.9842 3.96201V3.96392Z" fill="white"/>
    </g>
    <g style="mix-blend-mode:soft-light">
      <path d="M57.3974 18.0874C55.5951 18.0797 55.904 29.738 56.2778 30.7371C56.6516 31.7362 70.7974 30.6299 72.346 30.4653C73.8947 30.3007 73.725 18.0395 73.0555 17.3677C72.3861 16.6959 57.3993 18.0893 57.3993 18.0893L57.3974 18.0874Z" fill="white"/>
    </g>
    <g style="mix-blend-mode:soft-light">
      <path d="M60.445 86.9057C58.7037 87.8417 59.2626 97.427 59.5753 98.0146C59.8881 98.6022 72.0122 97.3907 73.5056 95.9552C74.9989 94.5196 75.7484 85.7458 75.3708 85.3458C74.9932 84.9438 60.445 86.9057 60.445 86.9057Z" fill="white"/>
    </g>
    <g style="mix-blend-mode:multiply" opacity="0.3">
      <path d="M37.3737 85.8434C35.6953 85.6558 36.0977 95.2833 36.3781 96.204C36.6584 97.1246 51.8226 98.3074 55.1965 98.2175C57.1476 98.1658 56.6727 88.0905 56.1539 87.3421C55.6351 86.5937 37.3737 85.8434 37.3737 85.8434Z" fill="#6E5066"/>
    </g>
    <g style="mix-blend-mode:multiply" opacity="0.3">
      <path d="M89.9439 82.5762C89.7055 81.7264 76.0384 84.9247 75.9927 85.2903C75.9469 85.6558 74.7301 95.4671 74.7797 96.0949C74.8312 96.7227 85.7404 93.6602 86.8599 92.7721C87.9794 91.8821 89.9439 82.5762 89.9439 82.5762Z" fill="#6E5066"/>
    </g>
    <g style="mix-blend-mode:multiply" opacity="0.3">
      <path d="M78.0447 17.182C74.9436 17.2184 74.4992 28.5513 74.9665 29.581C75.4318 30.6107 89.4631 27.4277 90.5636 26.7732C91.6641 26.1186 93.3424 16.0298 93.249 15.5972C93.1555 15.1647 78.0447 17.182 78.0447 17.182Z" fill="#6E5066"/>
    </g>
    <g style="mix-blend-mode:multiply" opacity="0.3">
      <path d="M54.6567 19.4712C54.7234 18.0855 32.9889 17.6395 31.1237 18.0874C29.2584 18.5353 30.378 26.7732 31.1237 28.5513C31.8694 30.3294 52.6064 31.6865 53.7126 31.1486C54.8169 30.6108 54.6567 19.4712 54.6567 19.4712Z" fill="#6E5066"/>
    </g>
    <g style="mix-blend-mode:multiply" opacity="0.3">
      <path d="M53.665 5.24057C52.6771 3.75912 40.5453 3.18109 39.3324 3.18109C38.1194 3.18109 39.0901 12.7282 40.0495 14.1331C41.0107 15.538 52.8831 15.5475 53.7108 15.536C54.5385 15.5246 53.6631 5.24057 53.6631 5.24057H53.665Z" fill="#6E5066"/>
    </g>
    <g style="mix-blend-mode:multiply" opacity="0.3">
      <path d="M67.908 4.46156C66.8514 4.33715 66.0618 13.7369 66.3536 14.135C66.6435 14.5331 71.8883 13.3866 72.3231 12.8258C72.758 12.265 74.5832 3.94669 73.4999 3.46436C72.4166 2.98203 67.908 4.46156 67.908 4.46156Z" fill="#6E5066"/>
    </g>
    <g style="mix-blend-mode:soft-light">
      <path d="M46.4157 17.63C40.4195 16.5696 54.0903 15.9016 64.0459 14.8317C74.0015 13.7617 90.2147 12.5808 92.2859 13.511C94.3552 14.4431 74.177 19.253 46.4157 17.63Z" fill="white"/>
    </g>
    <g style="mix-blend-mode:soft-light">
      <path d="M55.1087 86.6014C47.0736 85.7515 72.9563 82.9035 78.9793 81.1905C85.0022 79.4774 89.0322 80.5722 88.8662 81.1905C88.7003 81.8087 71.3504 87.2923 55.1087 86.6014Z" fill="white"/>
    </g>
    <g style="mix-blend-mode:multiply" opacity="0.5">
      <path d="M92.4347 24.7022C93.2033 24.0591 93.7049 20.344 93.8422 19.1975L93.0145 27.0144C51.5995 36.7471 17.4033 27.0144 17.4033 27.0144L16.4192 18.8817C16.5565 19.2282 17.6913 25.242 19.8293 26.9608C22.0245 28.7484 40.1696 31.1754 62.4324 30.4232C84.6952 29.6729 91.5192 25.4621 92.4347 24.7022Z" fill="#6E3B66"/>
    </g>
    <g style="mix-blend-mode:multiply" opacity="0.5">
      <path d="M93.8727 18.92C93.8727 18.9793 93.8632 19.0674 93.8441 19.1975L93.8727 18.92Z" fill="#6E3B66"/>
    </g>
    <path d="M17.8896 14.4967C17.8896 14.4967 33.0805 19.5574 59.1997 19.0578C85.3189 18.5582 92.9534 14.4967 92.9534 14.4967C92.9534 14.4967 53.9396 21.7872 17.8877 14.4967H17.8896Z" fill="#EED6DD"/>
    <path d="M37.2363 1.89294C37.2363 1.89294 46.841 5.14676 58.3148 5.28649C69.7885 5.42621 73.8394 2.23747 73.8394 2.23747C73.8394 2.23747 58.1202 5.25395 37.2363 1.89294Z" fill="#EED6DD"/>
    <path d="M56.7298 5.00706C53.499 4.47114 62.2817 3.39546 65.6384 3.59261C68.9969 3.78975 63.7731 6.17652 56.7298 5.00706Z" fill="white"/>
    <path d="M56.9149 18.8817C54.1113 18.5123 67.9214 16.7553 70.8604 17.3639C73.7994 17.9726 67.7364 20.3039 56.9149 18.8817Z" fill="white"/>
    <path d="M29.1288 83.1504C29.1288 83.1504 53.7604 90.7261 88.2579 81.981C88.2579 81.981 63.7331 94.0603 29.1288 83.1504Z" fill="#EED6DD"/>
    <path d="M59.8614 87.7134C57.3821 87.5431 67.7535 85.2883 72.121 85.5161C76.4885 85.7458 68.6384 88.3201 59.8614 87.7134Z" fill="white"/>
    <g style="mix-blend-mode:multiply" opacity="0.5">
      <path d="M88.9101 89.1795L88.3494 92.8162C55.6389 105.129 25.3029 94.3569 25.3029 94.3569L24.5248 88.4867C24.6335 88.9116 27.5477 99.2281 55.9937 98.1601C84.1345 97.1035 88.6546 89.6446 88.9101 89.1795Z" fill="#6E3B66"/>
    </g>
    <g style="mix-blend-mode:multiply" opacity="0.5">
      <path d="M20.6588 29.2174C20.6588 29.2174 47.3559 38.351 66.2906 37.0399C85.2273 35.7288 89.8999 29.7858 89.8999 29.7858V27.713C89.8999 27.713 61.8316 36.1116 20.6588 27.713V29.2174Z" fill="#923B66"/>
    </g>
    <g style="mix-blend-mode:soft-light">
      <path d="M16.8788 15.5973C17.1306 13.0114 19.917 25.6496 19.8293 26.9607C19.7415 28.2718 15.6944 23.3318 16.8788 15.5973Z" fill="white"/>
    </g>
    <g style="mix-blend-mode:soft-light">
      <path d="M26.2813 91.2869C24.8032 90.6055 24.1262 83.5772 24.9977 82.4326C25.8674 81.2881 31.404 88.0637 31.404 91.729C31.404 95.3943 26.2832 91.2869 26.2832 91.2869H26.2813Z" fill="white"/>
    </g>
    <g style="mix-blend-mode:soft-light">
      <path d="M36.8759 3.7342C37.6101 2.05944 40.4443 12.4238 39.8606 13.6124C39.277 14.801 36.2808 10.64 36.8759 3.7342Z" fill="white"/>
    </g>
    <path d="M28.4174 77.5117C27.2235 77.9232 24.9654 56.3542 25.6195 52.2353C26.2718 48.1163 31.4956 76.2006 31.4041 78.1663C31.3106 80.132 28.4193 77.5117 28.4193 77.5117H28.4174Z" fill="white"/>
    <g style="mix-blend-mode:multiply" opacity="0.5">
      <path d="M36.1225 74.3287C29.72 73.5095 28.425 35.0532 30.1015 32.0367C31.7779 29.0202 51.0598 33.3248 59.234 32.764C67.4083 32.2032 78.5693 28.9494 81.4015 31.1486C84.2337 33.3459 82.9444 49.9633 82.3589 53.6268C81.7734 57.2921 67.6467 48.2292 55.6332 51.8238C43.6216 55.4183 46.3642 75.6398 36.1206 74.3287H36.1225Z" fill="#C9D16D"/>
    </g>
    <g style="mix-blend-mode:soft-light">
      <path d="M85.6927 59.5372C85.1339 51.9539 79.8547 78.6544 80.8427 79.6037C81.8306 80.5531 85.0404 83.1294 85.6927 59.5372Z" fill="white"/>
    </g>
    <path d="M63.6778 37.7252C60.9124 37.8859 68.8864 61.9719 73.8375 61.6905C78.7886 61.4091 84.2585 35.1968 84.0296 34.636C83.8007 34.0751 73.3798 37.1624 63.6778 37.7252Z" fill="white"/>
    <path d="M73.2119 64.3376C71.3009 64.4371 71.5927 69.4958 73.2844 70.5275C74.9761 71.5592 76.3969 64.173 73.2119 64.3376Z" fill="white"/>
    <path style="mix-blend-mode:screen" d="M30.603 34.5689C26.7543 35.2618 31.0569 70.3437 33.8071 74.9852C36.5573 79.6267 44.9833 67.0957 44.7583 53.6268C44.5332 40.1579 33.2254 34.0962 30.603 34.5689Z" fill="url(#paint8_linear_1640_15721)"/>
    <g style="mix-blend-mode:soft-light">
      <path d="M40.0837 72.1257C38.0144 70.8701 38.5255 45.5152 39.2922 44.6328C40.0589 43.7486 42.0119 68.9848 41.7201 70.7514C41.4283 72.5181 40.0837 72.1257 40.0837 72.1257Z" fill="white"/>
    </g>
    <g style="mix-blend-mode:multiply" opacity="0.5">
      <path d="M25.301 94.3569C25.301 94.3569 24.3054 82.2738 24.6105 81.1904C24.9157 80.1071 27.7345 79.6037 27.7345 79.6037C27.7345 79.6037 24.3874 52.4094 23.3423 44.2022C22.2971 35.9949 20.6588 27.713 20.6588 27.713C20.6588 27.713 26.7695 76.6466 26.5769 77.3509C26.3842 78.0553 23.2354 78.8152 23.3403 79.6037C23.4452 80.3923 25.301 94.3569 25.301 94.3569Z" fill="#6E3B66"/>
    </g>
    <g style="mix-blend-mode:multiply" opacity="0.5">
      <path d="M19.8311 11.9051C19.8311 11.9051 30.2139 10.927 33.4676 10.7739L36.7213 10.6208L35.413 1.43738C35.413 1.43738 37.7855 11.6831 38.3615 12.753C38.9375 13.8229 51.5231 15.5896 57.7521 15.3982C63.981 15.2049 72.9983 13.6028 72.9983 13.6028C72.9983 13.6028 55.7857 18.3113 36.7881 14.4986C36.7881 14.4986 36.5725 12.3683 35.7105 11.9357C34.8484 11.5032 19.8273 11.9051 19.8273 11.9051H19.8311Z" fill="#6E3B66"/>
    </g>
    <g style="mix-blend-mode:multiply" opacity="0.5">
      <path d="M83.446 48.8398C82.6259 61.3977 80.5623 74.8091 77.2151 77.6113C71.976 81.9867 38.7048 82.6375 35.0525 77.9768C33.2006 75.6111 31.5528 68.9102 30.2578 61.0742V61.034C30.2578 61.034 33.2025 72.9104 36.9197 75.3546C43.3775 79.6018 70.9728 81.7379 76.8604 75.9709C82.7384 70.1945 83.4383 48.8092 83.4383 48.8092L83.4479 48.8398H83.446Z" fill="#927466"/>
    </g>
  </g>
  <defs>
    <linearGradient id="paint0_linear_1640_15721" x1="23.3423" y1="89.1623" x2="90.2986" y2="89.1623" gradientUnits="userSpaceOnUse">
      <stop stop-color="#728EE3"/>
      <stop offset="0.299" stop-color="#836888"/>
      <stop offset="0.573" stop-color="#E1D9E0"/>
      <stop offset="0.849" stop-color="#937D9A"/>
      <stop offset="1" stop-color="#6D636A"/>
    </linearGradient>
    <linearGradient id="paint1_linear_1640_15721" x1="61.1412" y1="91.8898" x2="52.5353" y2="68.3308" gradientUnits="userSpaceOnUse">
      <stop stop-color="#DECDD1"/>
      <stop offset="0.198" stop-color="#DAC9CD"/>
      <stop offset="0.375" stop-color="#D1BEC2"/>
      <stop offset="0.544" stop-color="#C2ACB0"/>
      <stop offset="0.696" stop-color="#AE959A"/>
      <stop offset="1" stop-color="#DDD4EA"/>
    </linearGradient>
    <linearGradient id="paint2_linear_1640_15721" x1="55.1964" y1="84.1955" x2="55.1964" y2="23.06" gradientUnits="userSpaceOnUse">
      <stop stop-color="#F7E2F8"/>
      <stop offset="0.03" stop-color="#F4DDF5"/>
      <stop offset="0.266" stop-color="#E1BBE1"/>
      <stop offset="0.46" stop-color="#D5A6D5"/>
      <stop offset="0.589" stop-color="#D19FD1"/>
      <stop offset="0.638" stop-color="#BE91C3"/>
      <stop offset="0.722" stop-color="#A47FB0"/>
      <stop offset="0.808" stop-color="#9272A2"/>
      <stop offset="0.899" stop-color="#876A9A"/>
      <stop offset="1" stop-color="#846898"/>
    </linearGradient>
    <linearGradient id="paint3_linear_1640_15721" x1="55.637" y1="81.1924" x2="55.637" y2="24.3672" gradientUnits="userSpaceOnUse">
      <stop stop-color="#A9DE00"/>
      <stop offset="1" stop-color="#408100"/>
    </linearGradient>
    <linearGradient id="paint4_linear_1640_15721" x1="15.7706" y1="22.4571" x2="94.4429" y2="22.4571" gradientUnits="userSpaceOnUse">
      <stop stop-color="#728EE3"/>
      <stop offset="0.299" stop-color="#836888"/>
      <stop offset="0.573" stop-color="#E1D9E0"/>
      <stop offset="0.849" stop-color="#937D9A"/>
      <stop offset="1" stop-color="#6D636A"/>
    </linearGradient>
    <linearGradient id="paint5_linear_1640_15721" x1="59.8272" y1="26.6009" x2="50.2003" y2="0.244056" gradientUnits="userSpaceOnUse">
      <stop stop-color="#DECDD1"/>
      <stop offset="0.198" stop-color="#DAC9CD"/>
      <stop offset="0.375" stop-color="#D1BEC2"/>
      <stop offset="0.544" stop-color="#C2ACB0"/>
      <stop offset="0.696" stop-color="#AE959A"/>
      <stop offset="1" stop-color="#DDD4EA"/>
    </linearGradient>
    <linearGradient id="paint6_linear_1640_15721" x1="35.415" y1="8.42162" x2="73.8967" y2="8.42162" gradientUnits="userSpaceOnUse">
      <stop stop-color="#728EE3"/>
      <stop offset="0.299" stop-color="#836888"/>
      <stop offset="0.573" stop-color="#E1D9E0"/>
      <stop offset="0.849" stop-color="#937D9A"/>
      <stop offset="1" stop-color="#6D636A"/>
    </linearGradient>
    <linearGradient id="paint7_linear_1640_15721" x1="57.1265" y1="8.59199" x2="52.1979" y2="-4.90199" gradientUnits="userSpaceOnUse">
      <stop stop-color="#DECDD1"/>
      <stop offset="0.411" stop-color="#DDCDD4"/>
      <stop offset="0.778" stop-color="#DDD1DF"/>
      <stop offset="1" stop-color="#DDD4EA"/>
    </linearGradient>
    <linearGradient id="paint8_linear_1640_15721" x1="29.0753" y1="55.2575" x2="44.764" y2="55.2575" gradientUnits="userSpaceOnUse">
      <stop offset="0.017" stop-color="#0045FE"/>
      <stop offset="1"/>
    </linearGradient>
    <clipPath id="clip0_1640_15721">
      <rect width="110" height="121" fill="white"/>
    </clipPath>
  </defs>
</svg>