<svg xmlns="http://www.w3.org/2000/svg" width="116" height="121" viewBox="0 0 116 121" fill="none">
  <path d="M85.7348 4.59784H30.273C13.5581 4.59784 0.00793457 18.1959 0.00793457 34.97V90.628C0.00793457 107.402 13.5581 121 30.273 121H85.7348C102.45 121 116 107.402 116 90.628V34.97C116 18.1959 102.45 4.59784 85.7348 4.59784Z" fill="#081B5E"/>
  <path d="M116 30.36V86.024C116 91.629 114.494 96.8484 111.865 101.355C111.839 101.41 111.811 101.438 111.782 101.493C111.754 101.547 111.7 101.602 111.646 101.684C111.646 101.713 111.618 101.739 111.618 101.767C111.618 101.795 111.589 101.822 111.563 101.876C111.042 102.673 110.523 103.442 109.976 104.185C108.991 105.503 107.567 107.152 105.733 108.801C100.395 113.526 93.4118 116.384 85.747 116.384H30.2791C19.9575 116.384 10.8406 111.191 5.39212 103.279C5.36396 103.251 5.36396 103.224 5.33782 103.196C1.97101 98.334 0 92.398 0 86.024V30.36C0 13.5996 13.5517 0 30.2791 0H85.747C102.448 0 116 13.5996 116 30.36Z" fill="#0E30A7"/>
  <g style="mix-blend-mode:soft-light" opacity="0.2">
    <path d="M2.9248 99.0023C3.52616 72.5236 40.4384 106.535 64.6919 106.535C88.9453 106.535 100.271 79.7251 109.866 83.6286C119.462 87.5321 109.347 109.397 91.9702 114.081C74.5932 118.766 32.0978 116.629 21.1607 114.99C10.2236 113.351 2.9248 99.0023 2.9248 99.0023Z" fill="white"/>
  </g>
  <g style="mix-blend-mode:soft-light">
    <path d="M111.784 101.493C111.756 101.576 111.701 101.658 111.619 101.767C111.619 101.796 111.591 101.822 111.565 101.876C111.263 102.371 110.744 103.196 109.978 104.185C108.992 105.503 107.568 107.152 105.734 108.801C100.396 113.526 93.4133 116.384 85.7485 116.384H30.2786C19.9569 116.384 10.84 111.191 5.39157 103.279C5.36342 103.251 5.36342 103.225 5.33727 103.196C5.11805 102.756 4.98128 102.482 4.95312 102.373C5.77371 103.033 22.5836 116.166 62.392 116.166C99.4068 116.166 109.974 103.996 111.645 101.687C111.699 101.604 111.754 101.549 111.782 101.495L111.784 101.493Z" fill="#BF77D8"/>
  </g>
  <path d="M68.7456 103.523C68.7456 103.523 67.7921 106.122 66.177 108.318C66.177 108.324 66.1704 108.331 66.1654 108.339C64.9413 110.008 63.3312 111.45 61.3531 111.475C59.7166 111.495 58.3209 110.51 57.1876 109.225C55.1369 106.906 53.8617 103.523 53.8617 103.523C53.8617 103.523 63.2487 107.108 68.7456 103.523Z" fill="url(#paint0_linear_1640_15772)"/>
  <g style="mix-blend-mode:multiply" opacity="0.3">
    <path d="M54.9489 104.898C55.1667 106.11 57.1018 108.129 58.2748 109.181C59.4214 110.21 60.304 106.956 62.442 105.987C64.623 104.999 65.1608 107.436 65.7943 107.194C66.4327 106.951 68.0148 104.807 68.1781 104.29C68.3431 103.769 64.5718 105.428 61.5446 105.533C58.5239 105.639 54.6784 103.38 54.9506 104.898H54.9489Z" fill="#D60066"/>
  </g>
  <path d="M62.6653 109.563C61.207 109.339 64.8809 105.843 66.2172 105.854C67.5535 105.866 65.2472 109.958 62.6653 109.563Z" fill="white"/>
  <g style="mix-blend-mode:multiply" opacity="0.8">
    <path d="M66.1722 108.324L66.1656 108.338C64.9415 110.007 63.3314 111.449 61.3533 111.473C59.7168 111.493 58.3211 110.508 57.1877 109.223C57.5969 109.339 59.6937 111.505 61.6552 111.232C64.3393 110.856 66.0303 108.464 66.1722 108.324Z" fill="#D42F55"/>
  </g>
  <path d="M70.2 102.485C70.1125 100.078 63.0368 101.546 64.3088 86.7523L61.1908 86.5801L58.0761 86.7523C59.5377 101.546 52.4439 100.078 52.3878 102.485C52.3366 104.69 61.3145 105.682 61.3145 105.682C61.3145 105.682 70.2808 104.689 70.2 102.485Z" fill="url(#paint1_linear_1640_15772)"/>
  <path d="M74.8225 82.1348L73.1348 91.3679C60.7503 95.1691 50.4246 91.3679 50.4246 91.3679L48.7089 82.1348H74.8225Z" fill="url(#paint2_linear_1640_15772)"/>
  <path d="M48.7088 82.1334C46.5839 80.4431 70.1718 79.4448 74.4496 81.5606C76.7163 82.6814 69.5186 84.1963 62.3323 84.342C56.5615 84.4578 50.4493 83.5175 48.7088 82.1334Z" fill="url(#paint3_linear_1640_15772)"/>
  <path d="M80.0478 37.1896V37.1979C80.033 37.2525 80.0247 37.2989 80.0165 37.3535C79.4754 40.5339 78.0912 46.1959 76.4761 52.3861H76.4679C76.4217 52.3861 76.2666 52.3944 76.0423 52.4093C75.8806 52.4175 75.6859 52.4242 75.455 52.4407C75.2537 52.4556 75.0227 52.4722 74.7753 52.5103C73.863 52.5947 72.7494 52.7437 71.9608 53.0152C70.6394 53.4655 72.4326 57.2352 73.4225 58.7633C73.6304 59.0812 73.8085 59.2981 73.9092 59.3759C74.0329 59.4686 74.3183 59.3213 74.7126 59.0266C71.5748 70.5527 68.3908 81.4662 68.3908 81.4662C68.3908 81.4662 63.336 82.4281 61.0099 82.2426C58.6904 82.0572 54.5561 81.4662 54.5561 81.4662C54.5561 81.4662 46.9343 54.8612 43.719 41.8831C42.8001 38.1829 42.2425 35.5854 42.32 35.0341C42.6747 32.4977 55.8462 7.87773 59.634 5.24869C59.9046 5.05498 60.2362 5.03843 60.6469 5.1626H60.6552C65.8964 6.82313 79.7311 31.2246 80.2491 35.0341C80.2953 35.3917 80.226 36.1433 80.0478 37.1896Z" fill="url(#paint4_linear_1640_15772)"/>
  <g style="mix-blend-mode:soft-light">
    <path d="M58.7952 7.11461C60.7831 5.21071 54.2815 43.7673 59.2109 81.7709C59.2604 82.1517 54.6907 81.9464 54.4861 81.2295C54.2799 80.5094 42.5866 37.794 42.994 35.0325C43.4098 32.218 58.7952 7.11461 58.7952 7.11461Z" fill="white"/>
  </g>
  <g style="mix-blend-mode:multiply" opacity="0.8">
    <path d="M58.169 93.0701C58.0387 94.1065 57.4151 99.0069 57.0571 100.603C56.7024 102.181 62.3099 101.533 63.5472 98.6725C64.8092 95.7521 63.9052 93.0701 63.9052 93.0701H58.169Z" fill="#D42F55"/>
  </g>
  <g style="mix-blend-mode:soft-light">
    <path d="M55.6635 103.143C53.598 100.512 60.8585 102.467 64.9763 101.022C69.1369 99.5617 68.9488 102.166 68.642 102.777C68.3368 103.384 63.4255 106.595 55.6619 103.141L55.6635 103.143Z" fill="white"/>
  </g>
  <g style="mix-blend-mode:multiply" opacity="0.3">
    <path d="M59.8088 5.16424C59.8088 5.16424 60.4126 4.45566 60.6238 7.08636C60.8317 9.67402 58.2845 43.8433 58.4874 58.8842C58.6705 72.4218 64.3159 80.9794 63.7319 81.4678C63.1495 81.9546 59.9474 82.7906 59.7445 81.8304C54.6419 57.823 59.8072 5.1659 59.8072 5.1659L59.8088 5.16424Z" fill="#6E5086"/>
  </g>
  <path d="M75.6086 58.7583C72.4758 70.2811 68.3927 81.4678 68.3927 81.4678C68.9173 77.7378 71.2665 68.4417 73.4244 58.7583C73.6339 59.0795 73.8121 59.298 73.9111 59.3758C74.0381 59.4702 75.221 59.0546 75.6086 58.7583Z" fill="#6E5086"/>
  <path d="M80.0488 37.1866V37.1965C80.0339 37.2512 80.0224 37.2975 80.0174 37.3521C79.4747 40.5325 78.0889 46.1995 76.4771 52.3831H76.4672C76.4193 52.3831 76.2659 52.3913 76.0449 52.4079C75.8815 52.4162 75.6902 52.4245 75.4592 52.441C75.2579 52.4576 75.027 52.4741 74.7762 52.5072C76.2527 45.3734 77.3646 38.7528 77.2046 35.1999C76.7773 25.5695 61.7516 7.57837 60.6561 5.16455C65.8924 6.82178 79.7287 31.2249 80.2484 35.031C80.2962 35.392 80.2286 36.1403 80.0488 37.1866Z" fill="#6E5086"/>
  <path d="M79.2955 35.7194C77.6821 35.8949 75.1448 28.4565 75.681 27.3207C76.2221 26.1767 80.8116 34.1367 79.2955 35.7194Z" fill="#A08CAF"/>
  <g style="mix-blend-mode:soft-light">
    <path d="M42.9968 35.0324C45.4384 29.8372 56.5741 48.3282 56.9453 50.0086C57.3132 51.6692 59.7878 22.6437 57.4897 15.5264C55.0828 8.07139 43.9504 28.1203 42.9968 35.0324Z" fill="white"/>
  </g>
  <g style="mix-blend-mode:multiply" opacity="0.8">
    <path d="M80.0498 37.1863V37.1962C80.0349 37.2509 80.0234 37.2972 80.0184 37.3519C79.0814 41.5636 77.2254 48.3217 76.0459 52.4076C75.8825 52.4159 75.6912 52.4242 75.4602 52.4407C76.1217 47.3201 77.1396 38.2806 77.2716 37.8899C77.4415 37.38 79.3519 34.549 80.0498 37.188V37.1863Z" fill="#936366"/>
  </g>
  <g style="mix-blend-mode:soft-light">
    <path d="M60.4501 46.5997C60.5904 48.7635 73.907 40.3383 75.3473 34.3683C76.8485 28.1467 62.8274 8.37256 61.986 8.37256C61.1447 8.37256 60.0955 38.3433 60.4501 46.5997Z" fill="white"/>
  </g>
  <g style="mix-blend-mode:multiply" opacity="0.8">
    <path d="M53.5298 77.718C53.5298 77.718 54.4322 81.2858 58.347 81.7692C62.247 82.251 68.2042 80.2991 68.8047 79.1302C69.4101 77.9515 68.3939 81.4662 68.3939 81.4662C68.3939 81.4662 64.6655 82.6367 59.6503 82.6367C54.6351 82.6367 54.5609 81.4662 54.5609 81.4662L53.5298 77.718Z" fill="#936366"/>
  </g>
  <path d="M75.6079 58.7586C76.1028 57.6692 72.3167 53.8382 72.2705 53.4773C72.2243 53.1164 72.8429 52.782 72.8429 52.782C72.8429 52.782 71.4506 52.8317 71.2262 53.1926C71.0018 53.5535 72.871 59.002 73.582 59.7917C74.2898 60.5781 75.6096 58.7569 75.6096 58.7569L75.6079 58.7586Z" fill="#B1A4B0"/>
  <path d="M46.764 46.3981C46.0233 47.4643 47.0296 49.797 47.9848 50.5883C48.9334 51.3747 49.8127 48.35 49.2056 47.0686C48.5919 45.7756 47.2243 45.7375 46.7656 46.3997L46.764 46.3981Z" fill="#816C7E"/>
  <path d="M46.8463 48.8748C47.5722 50.1545 49.2978 49.1297 49.2978 49.1297C49.2978 49.1297 48.8046 50.7191 48.1678 51.0336C47.5326 51.3482 46.8463 48.8748 46.8463 48.8748Z" fill="#E0DBE0"/>
  <g style="mix-blend-mode:multiply" opacity="0.3">
    <path d="M46.7474 46.9558C46.4834 48.8498 48.7832 49.3895 48.9498 47.6346C49.1197 45.8582 47.0097 45.0718 46.7474 46.9558Z" fill="#6E5086"/>
  </g>
  <path d="M49.5591 50.7106C49.0922 51.3646 49.7043 52.8033 50.2965 53.2933C50.8871 53.7817 51.448 51.9093 51.0752 51.1212C50.699 50.3282 49.8494 50.3067 49.5591 50.7106Z" fill="#816C7E"/>
  <path d="M49.5955 52.2336C50.0409 53.0233 51.1248 52.3909 51.1248 52.3909C51.1248 52.3909 50.8097 53.3743 50.4104 53.5697C50.0112 53.765 49.5955 52.2336 49.5955 52.2336Z" fill="#E0DBE0"/>
  <g style="mix-blend-mode:multiply" opacity="0.3">
    <path d="M49.5459 51.0517C49.3694 52.2172 50.803 52.55 50.9152 51.4689C51.029 50.3778 49.7208 49.8977 49.5459 51.0517Z" fill="#6E5086"/>
  </g>
  <g style="mix-blend-mode:multiply" opacity="0.8">
    <path d="M71.221 52.9107C70.6948 53.2832 71.8133 56.2417 72.196 56.7317C72.5771 57.2218 72.0674 53.8941 72.2703 53.4752C72.4748 53.0547 73.3525 52.5034 73.3525 52.5034L71.221 52.9107Z" fill="#934F66"/>
  </g>
  <g style="mix-blend-mode:multiply" opacity="0.5">
    <path d="M53.9161 92.2903C53.9161 92.2903 51.9942 86.6497 52.2862 84.817C52.5815 82.9611 58.7168 84.1515 63.7601 83.6565C68.8215 83.1598 71.7778 91.7572 71.7778 91.7572C71.7778 91.7572 68.249 84.5455 64.7648 84.0521C61.269 83.5571 58.2038 83.9065 56.4353 84.3501C54.6733 84.7922 55.6896 92.6081 55.6896 92.6081L53.9161 92.2903Z" fill="#B10053"/>
  </g>
  <g style="mix-blend-mode:multiply" opacity="0.5">
    <path d="M57.255 92.8167C57.255 92.8167 56.8459 87.9344 60.5677 86.6149C64.3225 85.2839 69.887 92.2124 69.887 92.2124L68.6464 92.4558C68.6464 92.4558 64.4231 85.9676 61.0576 87.0371C57.7169 88.0983 57.6179 92.815 57.6179 92.815L57.255 92.8167Z" fill="#B10053"/>
  </g>
  <g style="mix-blend-mode:multiply" opacity="0.5">
    <path d="M58.6864 89.8681C58.2838 91.6628 65.9155 92.7008 67.1198 92.6064C68.3241 92.5121 64.8036 88.3649 62.9345 87.7026C61.0571 87.0371 58.6864 89.8681 58.6864 89.8681Z" fill="#D42F55"/>
  </g>
  <g style="mix-blend-mode:multiply" opacity="0.5">
    <path d="M57.4086 88.8684C56.5573 88.5803 56.1399 85.8139 57.3541 84.7924C58.5766 83.7643 63.1497 84.0027 64.3243 84.9397C65.4923 85.8701 62.6597 85.8072 60.2032 86.4479C57.7567 87.087 57.4086 88.8684 57.4086 88.8684Z" fill="#D42F55"/>
  </g>
  <path d="M58.9325 88.6296C58.3518 89.4954 61.6908 87.5203 62.128 87.267C62.5652 87.0137 60.536 86.2389 58.9325 88.6296Z" fill="#FF6500"/>
  <path d="M64.7639 84.0524C63.9951 83.9564 67.3556 86.8089 68.4593 87.4397C69.558 88.0688 67.1478 84.3521 64.7639 84.0524Z" fill="#FF6500"/>
  <path d="M66.3497 84.1232C65.4226 83.8318 68.8656 82.0355 71.4045 81.6962C73.95 81.3551 74.3625 82.5587 74.1018 82.6663C73.8428 82.7739 68.9926 83.9494 66.3497 84.1232Z" fill="#FFA457"/>
  <path d="M61.722 84.1233C60.1069 83.8419 64.416 83.8236 64.7641 84.0521C65.1105 84.2806 63.3354 84.4031 61.722 84.1233Z" fill="#FFA457"/>
  <path d="M50.1845 82.885C47.5168 81.0821 54.35 82.4281 57.4812 83.1102C60.5976 83.789 54.2676 83.8916 53.0715 83.6366C51.8738 83.3817 50.1845 82.885 50.1845 82.885Z" fill="#FFA457"/>
  <g style="mix-blend-mode:multiply" opacity="0.8">
    <path d="M60.6548 5.16107C60.6548 5.16107 57.4196 7.608 54.4749 12.4787C51.5301 17.3428 49.3623 20.4188 47.0824 26.8871C44.8107 33.3488 42.8937 38.4215 43.7202 41.8816C42.8013 38.1814 42.2437 35.5838 42.3212 35.0325C42.6759 32.4962 55.8474 7.87621 59.6352 5.24716C59.9058 5.05346 60.2374 5.0369 60.6482 5.16107H60.6548Z" fill="#93637F"/>
  </g>
  <g style="mix-blend-mode:multiply" opacity="0.8">
    <path d="M46.8465 53.5862C46.8465 53.5862 49.9843 61.5545 52.2543 68.0211C54.5244 74.4878 54.4881 81.2293 54.4881 81.2293L46.7261 53.3826L46.8465 53.5862Z" fill="#93637F"/>
  </g>
  <g style="mix-blend-mode:multiply" opacity="0.8">
    <path d="M73.4307 59.583C73.2212 59.6674 71.9905 67.6291 72.002 68.2168C72.0136 68.8045 75.0672 60.7253 75.2355 60.1178C75.4038 59.5085 74.7505 59.9969 74.0279 59.9886C73.3037 59.9803 73.4307 59.583 73.4307 59.583Z" fill="#936366"/>
  </g>
  <g style="mix-blend-mode:multiply" opacity="0.3">
    <path d="M58.5071 53.6807C57.0998 47.9988 71.1325 42.4112 74.168 38.8037C77.2035 35.1979 75.463 41.451 75.6528 44.2572C75.8425 47.0634 58.7463 54.6442 58.5071 53.6807Z" fill="#6E5086"/>
  </g>
  <defs>
    <linearGradient id="paint0_linear_1640_15772" x1="61.3036" y1="111.475" x2="61.3036" y2="103.523" gradientUnits="userSpaceOnUse">
      <stop stop-color="#FFA200"/>
      <stop offset="1" stop-color="#FFB82F"/>
    </linearGradient>
    <linearGradient id="paint1_linear_1640_15772" x1="61.2931" y1="105.684" x2="61.2931" y2="86.5801" gradientUnits="userSpaceOnUse">
      <stop stop-color="#A71100"/>
      <stop offset="1" stop-color="#8B2203"/>
    </linearGradient>
    <linearGradient id="paint2_linear_1640_15772" x1="48.7089" y1="87.5965" x2="74.8225" y2="87.5965" gradientUnits="userSpaceOnUse">
      <stop stop-color="#A71100"/>
      <stop offset="0.645" stop-color="#D83303"/>
      <stop offset="1" stop-color="#EC5C11"/>
    </linearGradient>
    <linearGradient id="paint3_linear_1640_15772" x1="63.4046" y1="86.5869" x2="60.0829" y2="77.4971" gradientUnits="userSpaceOnUse">
      <stop stop-color="#FF7E03"/>
      <stop offset="1" stop-color="#FF9811"/>
    </linearGradient>
    <linearGradient id="paint4_linear_1640_15772" x1="61.2887" y1="82.2642" x2="61.2887" y2="5.08147" gradientUnits="userSpaceOnUse">
      <stop stop-color="#728EE3"/>
      <stop offset="0.299" stop-color="#836888"/>
      <stop offset="0.802" stop-color="#E1D9E0"/>
    </linearGradient>
  </defs>
</svg>