<svg xmlns="http://www.w3.org/2000/svg" width="24" height="24" viewBox="0 0 24 24" fill="none">
<path d="M12 4.35405C12.7329 3.52363 13.8053 2.99988 15 2.99988C17.2091 2.99988 19 4.79074 19 6.99988C19 9.20902 17.2091 10.9999 15 10.9999C13.8053 10.9999 12.7329 10.4761 12 9.6457M15 20.9999H3V19.9999C3 16.6862 5.68629 13.9999 9 13.9999C12.3137 13.9999 15 16.6862 15 19.9999V20.9999ZM15 20.9999H21V19.9999C21 16.6862 18.3137 13.9999 15 13.9999C13.9071 13.9999 12.8825 14.2921 12 14.8026M13 6.99988C13 9.20902 11.2091 10.9999 9 10.9999C6.79086 10.9999 5 9.20902 5 6.99988C5 4.79074 6.79086 2.99988 9 2.99988C11.2091 2.99988 13 4.79074 13 6.99988Z" stroke="#9CA3AF" stroke-width="2" stroke-linecap="round" stroke-linejoin="round"/>
</svg>